<svg width="172" height="82" viewBox="0 0 172 82" fill="none" xmlns="http://www.w3.org/2000/svg">
<g filter="url(#filter0_d_2775_29269)">
<rect x="4" width="164" height="74" rx="12" fill="#D32F2F"/>
<g clip-path="url(#clip0_2775_29269)">
<path fill-rule="evenodd" clip-rule="evenodd" d="M72.4629 11.4649C73.4025 10.5274 74.6757 10.001 76.003 10.001C77.3303 10.001 78.6034 10.5274 79.543 11.4649L86.0127 17.9322L92.4654 11.4649C93.4053 10.528 94.6783 10.002 96.0054 10.002C97.3325 10.002 98.6055 10.528 99.5454 11.4649C100.483 12.4045 101.009 13.6776 101.009 15.0049C101.009 16.3322 100.483 17.6053 99.5454 18.545L93.0708 25.0001L99.5381 31.4673C100.475 32.4073 101.001 33.6803 101.001 35.0074C101.001 36.3345 100.475 37.6075 99.5381 38.5474C98.5982 39.4843 97.3252 40.0103 95.9981 40.0103C94.671 40.0103 93.398 39.4843 92.458 38.5474L85.9981 32.0728L79.543 38.5401C78.603 39.477 77.3301 40.003 76.003 40.003C74.6759 40.003 73.4029 39.477 72.4629 38.5401C71.5261 37.6001 71 36.3272 71 35.0001C71 33.673 71.5261 32.4 72.4629 31.46L78.9253 25.0001L72.4629 18.5303C71.5299 17.5913 71.0063 16.3213 71.0063 14.9976C71.0063 13.6739 71.5299 12.4039 72.4629 11.4649Z" fill="white"/>
</g>
<g filter="url(#filter1_d_2775_29269)">
<path d="M50.8686 54.3828H48.6911C48.6513 54.1011 48.5701 53.8509 48.4474 53.6321C48.3248 53.41 48.1674 53.2211 47.9751 53.0653C47.7829 52.9096 47.5608 52.7902 47.3089 52.7074C47.0604 52.6245 46.7902 52.5831 46.4986 52.5831C45.9716 52.5831 45.5125 52.714 45.1214 52.9759C44.7304 53.2344 44.4271 53.6122 44.2116 54.1094C43.9962 54.6032 43.8885 55.2031 43.8885 55.9091C43.8885 56.6349 43.9962 57.2448 44.2116 57.7386C44.4304 58.2325 44.7353 58.6054 45.1264 58.8572C45.5175 59.1091 45.9699 59.2351 46.4837 59.2351C46.772 59.2351 47.0388 59.197 47.2841 59.1207C47.5327 59.0445 47.7531 58.9335 47.9453 58.7876C48.1375 58.6385 48.2966 58.4579 48.4226 58.2457C48.5518 58.0336 48.6413 57.7917 48.6911 57.5199L50.8686 57.5298C50.8123 57.9972 50.6714 58.4479 50.446 58.8821C50.224 59.313 49.924 59.6991 49.5462 60.0405C49.1716 60.3786 48.7242 60.647 48.2038 60.8459C47.6868 61.0414 47.1018 61.1392 46.4489 61.1392C45.5407 61.1392 44.7287 60.9337 44.0128 60.5227C43.3002 60.1117 42.7367 59.5168 42.3224 58.7379C41.9115 57.959 41.706 57.0161 41.706 55.9091C41.706 54.7988 41.9148 53.8542 42.3324 53.0753C42.75 52.2964 43.3168 51.7031 44.0327 51.2955C44.7486 50.8845 45.554 50.679 46.4489 50.679C47.0388 50.679 47.5857 50.7618 48.0895 50.9276C48.5966 51.0933 49.0457 51.3352 49.4368 51.6534C49.8279 51.9683 50.1461 52.3544 50.3913 52.8118C50.6399 53.2692 50.799 53.7929 50.8686 54.3828ZM53.9759 61H51.669L55.1839 50.8182H57.9581L61.468 61H59.1612L56.6108 53.1449H56.5312L53.9759 61ZM53.8317 56.9979H59.2805V58.6783H53.8317V56.9979ZM71.2099 50.8182V61H69.3505L64.9208 54.5916H64.8462V61H62.6935V50.8182H64.5827L68.9776 57.2216H69.0671V50.8182H71.2099ZM74.7235 50.8182V51.892C74.7235 52.197 74.6639 52.5085 74.5446 52.8267C74.4286 53.1416 74.2728 53.4399 74.0772 53.7216C73.8817 54 73.6679 54.237 73.4359 54.4325L72.5012 53.8807C72.667 53.6188 72.8128 53.3288 72.9387 53.0107C73.068 52.6925 73.1326 52.3229 73.1326 51.902V50.8182H74.7235ZM75.7862 52.593V50.8182H84.1484V52.593H81.0312V61H78.9034V52.593H75.7862ZM88.7658 61V50.8182H95.5073V52.593H90.9185V55.0192H95.0598V56.794H90.9185V61H88.7658ZM99.108 50.8182V61H96.9553V50.8182H99.108ZM102.898 50.8182L104.951 54.2884H105.03L107.094 50.8182H109.525L106.417 55.9091L109.594 61H107.118L105.03 57.5249H104.951L102.863 61H100.397L103.584 55.9091L100.456 50.8182H102.898ZM110.887 61V50.8182H117.748V52.593H113.04V55.0192H117.395V56.794H113.04V59.2251H117.768V61H110.887ZM123.069 61H119.459V50.8182H123.098C124.123 50.8182 125.004 51.022 125.743 51.4297C126.482 51.834 127.051 52.4157 127.449 53.1747C127.85 53.9337 128.05 54.8419 128.05 55.8991C128.05 56.9598 127.85 57.8712 127.449 58.6335C127.051 59.3958 126.479 59.9808 125.733 60.3885C124.991 60.7962 124.103 61 123.069 61ZM121.612 59.1555H122.979C123.615 59.1555 124.151 59.0429 124.585 58.8175C125.022 58.5888 125.35 58.2358 125.569 57.7585C125.791 57.2779 125.902 56.6581 125.902 55.8991C125.902 55.1468 125.791 54.532 125.569 54.0547C125.35 53.5774 125.024 53.2261 124.59 53.0007C124.156 52.7753 123.62 52.6626 122.984 52.6626H121.612V59.1555Z" fill="white"/>
</g>
</g>
<defs>
<filter id="filter0_d_2775_29269" x="0" y="0" width="172" height="82" filterUnits="userSpaceOnUse" color-interpolation-filters="sRGB">
<feFlood flood-opacity="0" result="BackgroundImageFix"/>
<feColorMatrix in="SourceAlpha" type="matrix" values="0 0 0 0 0 0 0 0 0 0 0 0 0 0 0 0 0 0 127 0" result="hardAlpha"/>
<feOffset dy="4"/>
<feGaussianBlur stdDeviation="2"/>
<feComposite in2="hardAlpha" operator="out"/>
<feColorMatrix type="matrix" values="0 0 0 0 0 0 0 0 0 0 0 0 0 0 0 0 0 0 0.25 0"/>
<feBlend mode="normal" in2="BackgroundImageFix" result="effect1_dropShadow_2775_29269"/>
<feBlend mode="normal" in="SourceGraphic" in2="effect1_dropShadow_2775_29269" result="shape"/>
</filter>
<filter id="filter1_d_2775_29269" x="37.707" y="50.6792" width="94.3438" height="18.46" filterUnits="userSpaceOnUse" color-interpolation-filters="sRGB">
<feFlood flood-opacity="0" result="BackgroundImageFix"/>
<feColorMatrix in="SourceAlpha" type="matrix" values="0 0 0 0 0 0 0 0 0 0 0 0 0 0 0 0 0 0 127 0" result="hardAlpha"/>
<feOffset dy="4"/>
<feGaussianBlur stdDeviation="2"/>
<feComposite in2="hardAlpha" operator="out"/>
<feColorMatrix type="matrix" values="0 0 0 0 0 0 0 0 0 0 0 0 0 0 0 0 0 0 0.25 0"/>
<feBlend mode="normal" in2="BackgroundImageFix" result="effect1_dropShadow_2775_29269"/>
<feBlend mode="normal" in="SourceGraphic" in2="effect1_dropShadow_2775_29269" result="shape"/>
</filter>
<clipPath id="clip0_2775_29269">
<rect width="30" height="30" fill="white" transform="translate(71 10)"/>
</clipPath>
</defs>
</svg>
