<svg width="144" height="74" viewBox="0 0 144 74" fill="none" xmlns="http://www.w3.org/2000/svg">
<rect width="144" height="74" rx="12" fill="#ED6C02"/>
<path fill-rule="evenodd" clip-rule="evenodd" d="M87.7796 29.0097L81.8679 29.0097C81.5452 29.0082 81.2362 28.8765 81.0085 28.6434C80.7809 28.4103 80.6531 28.0949 80.6531 27.766V11.2491C80.6545 10.9207 80.7828 10.6061 81.0102 10.3733C81.2375 10.1406 81.5456 10.0084 81.8679 10.0054H87.7796C88.1028 10.0069 88.4124 10.1384 88.6409 10.3713C88.8695 10.6043 88.9985 10.9197 89 11.2491V27.766C88.9985 28.0954 88.8695 28.4109 88.6409 28.6438C88.4124 28.8767 88.1028 29.0082 87.7796 29.0097ZM72.2726 41.3959C71.6344 44.7164 66.3049 41.6584 65.9522 36.3125C65.8735 34.4122 66.0258 32.5093 66.4056 30.6472L58.7865 30.6472C55.6235 30.5159 52.858 28.2053 54.8118 24.4113C54.3639 22.7567 54.2967 20.8169 55.5059 20.0467C55.3548 17.4394 56.0658 15.8191 57.3925 14.5411C57.4178 13.3511 57.7624 12.1909 58.389 11.1864C59.4135 9.71442 60.242 10.0453 61.8543 10.0453L74.7302 10.0453C76.7679 10.0453 77.8764 10.6159 79.2087 12.3274V26.9501C75.3404 27.9942 73.3026 33.34 72.2726 36.8488V41.413V41.3959Z" fill="white"/>
<g filter="url(#filter0_d_2775_29210)">
<path d="M54.4013 52.8187V63.0005H52.5419L48.1122 56.5921H48.0376V63.0005H45.8849V52.8187H47.7741L52.169 59.2221H52.2585V52.8187H54.4013ZM65.5364 57.9096C65.5364 59.0199 65.3259 59.9645 64.905 60.7434C64.4874 61.5223 63.9173 62.1172 63.1948 62.5282C62.4756 62.9359 61.6668 63.1397 60.7686 63.1397C59.8638 63.1397 59.0518 62.9342 58.3326 62.5232C57.6133 62.1122 57.0449 61.5173 56.6273 60.7384C56.2097 59.9595 56.0009 59.0166 56.0009 57.9096C56.0009 56.7993 56.2097 55.8547 56.6273 55.0758C57.0449 54.2969 57.6133 53.7036 58.3326 53.2959C59.0518 52.885 59.8638 52.6795 60.7686 52.6795C61.6668 52.6795 62.4756 52.885 63.1948 53.2959C63.9173 53.7036 64.4874 54.2969 64.905 55.0758C65.3259 55.8547 65.5364 56.7993 65.5364 57.9096ZM63.3539 57.9096C63.3539 57.1904 63.2462 56.5838 63.0307 56.09C62.8186 55.5961 62.5186 55.2216 62.1309 54.9664C61.7431 54.7112 61.289 54.5836 60.7686 54.5836C60.2483 54.5836 59.7942 54.7112 59.4064 54.9664C59.0186 55.2216 58.717 55.5961 58.5016 56.09C58.2895 56.5838 58.1834 57.1904 58.1834 57.9096C58.1834 58.6288 58.2895 59.2353 58.5016 59.7292C58.717 60.223 59.0186 60.5976 59.4064 60.8528C59.7942 61.108 60.2483 61.2356 60.7686 61.2356C61.289 61.2356 61.7431 61.108 62.1309 60.8528C62.5186 60.5976 62.8186 60.223 63.0307 59.7292C63.2462 59.2353 63.3539 58.6288 63.3539 57.9096ZM66.2784 54.5935V52.8187H74.6406V54.5935H71.5234V63.0005H69.3956V54.5935H66.2784ZM88.6145 57.9096C88.6145 59.0199 88.4041 59.9645 87.9831 60.7434C87.5655 61.5223 86.9954 62.1172 86.2729 62.5282C85.5537 62.9359 84.745 63.1397 83.8468 63.1397C82.9419 63.1397 82.1299 62.9342 81.4107 62.5232C80.6915 62.1122 80.123 61.5173 79.7054 60.7384C79.2878 59.9595 79.079 59.0166 79.079 57.9096C79.079 56.7993 79.2878 55.8547 79.7054 55.0758C80.123 54.2969 80.6915 53.7036 81.4107 53.2959C82.1299 52.885 82.9419 52.6795 83.8468 52.6795C84.745 52.6795 85.5537 52.885 86.2729 53.2959C86.9954 53.7036 87.5655 54.2969 87.9831 55.0758C88.4041 55.8547 88.6145 56.7993 88.6145 57.9096ZM86.432 57.9096C86.432 57.1904 86.3243 56.5838 86.1088 56.09C85.8967 55.5961 85.5968 55.2216 85.209 54.9664C84.8212 54.7112 84.3671 54.5836 83.8468 54.5836C83.3264 54.5836 82.8723 54.7112 82.4846 54.9664C82.0968 55.2216 81.7952 55.5961 81.5797 56.09C81.3676 56.5838 81.2615 57.1904 81.2615 57.9096C81.2615 58.6288 81.3676 59.2353 81.5797 59.7292C81.7952 60.223 82.0968 60.5976 82.4846 60.8528C82.8723 61.108 83.3264 61.2356 83.8468 61.2356C84.3671 61.2356 84.8212 61.108 85.209 60.8528C85.5968 60.5976 85.8967 60.223 86.1088 59.7292C86.3243 59.2353 86.432 58.6288 86.432 57.9096ZM90.2092 63.0005V52.8187H92.3619V57.308H92.4961L96.1602 52.8187H98.7404L94.962 57.3776L98.7852 63.0005H96.2099L93.4208 58.8144L92.3619 60.107V63.0005H90.2092Z" fill="white"/>
</g>
<defs>
<filter id="filter0_d_2775_29210" x="41.8867" y="52.6797" width="60.8984" height="18.46" filterUnits="userSpaceOnUse" color-interpolation-filters="sRGB">
<feFlood flood-opacity="0" result="BackgroundImageFix"/>
<feColorMatrix in="SourceAlpha" type="matrix" values="0 0 0 0 0 0 0 0 0 0 0 0 0 0 0 0 0 0 127 0" result="hardAlpha"/>
<feOffset dy="4"/>
<feGaussianBlur stdDeviation="2"/>
<feComposite in2="hardAlpha" operator="out"/>
<feColorMatrix type="matrix" values="0 0 0 0 0 0 0 0 0 0 0 0 0 0 0 0 0 0 0.25 0"/>
<feBlend mode="normal" in2="BackgroundImageFix" result="effect1_dropShadow_2775_29210"/>
<feBlend mode="normal" in="SourceGraphic" in2="effect1_dropShadow_2775_29210" result="shape"/>
</filter>
</defs>
</svg>
