<svg width="172" height="82" viewBox="0 0 172 82" fill="none" xmlns="http://www.w3.org/2000/svg">
<g filter="url(#filter0_d_2775_29272)">
<rect x="4" width="164" height="74" rx="12" fill="#ED6C02"/>
<g filter="url(#filter1_d_2775_29272)">
<path d="M51.4013 50.8182V61H49.5419L45.1122 54.5916H45.0376V61H42.8849V50.8182H44.7741L49.169 57.2216H49.2585V50.8182H51.4013ZM62.5364 55.9091C62.5364 57.0194 62.3259 57.964 61.905 58.7429C61.4874 59.5218 60.9173 60.1167 60.1948 60.5277C59.4756 60.9354 58.6668 61.1392 57.7686 61.1392C56.8638 61.1392 56.0518 60.9337 55.3326 60.5227C54.6133 60.1117 54.0449 59.5168 53.6273 58.7379C53.2097 57.959 53.0009 57.0161 53.0009 55.9091C53.0009 54.7988 53.2097 53.8542 53.6273 53.0753C54.0449 52.2964 54.6133 51.7031 55.3326 51.2955C56.0518 50.8845 56.8638 50.679 57.7686 50.679C58.6668 50.679 59.4756 50.8845 60.1948 51.2955C60.9173 51.7031 61.4874 52.2964 61.905 53.0753C62.3259 53.8542 62.5364 54.7988 62.5364 55.9091ZM60.3539 55.9091C60.3539 55.1899 60.2462 54.5833 60.0307 54.0895C59.8186 53.5956 59.5186 53.2211 59.1309 52.9659C58.7431 52.7107 58.289 52.5831 57.7686 52.5831C57.2483 52.5831 56.7942 52.7107 56.4064 52.9659C56.0186 53.2211 55.717 53.5956 55.5016 54.0895C55.2895 54.5833 55.1834 55.1899 55.1834 55.9091C55.1834 56.6283 55.2895 57.2348 55.5016 57.7287C55.717 58.2225 56.0186 58.5971 56.4064 58.8523C56.7942 59.1075 57.2483 59.2351 57.7686 59.2351C58.289 59.2351 58.7431 59.1075 59.1309 58.8523C59.5186 58.5971 59.8186 58.2225 60.0307 57.7287C60.2462 57.2348 60.3539 56.6283 60.3539 55.9091ZM63.2784 52.593V50.8182H71.6406V52.593H68.5234V61H66.3956V52.593H63.2784ZM78.013 61H75.7061L79.2211 50.8182H81.9952L85.5051 61H83.1983L80.6479 53.1449H80.5684L78.013 61ZM77.8688 56.9979H83.3176V58.6783H77.8688V56.9979ZM95.4943 53.7464C95.4545 53.3454 95.2839 53.0339 94.9822 52.8118C94.6806 52.5897 94.2713 52.4787 93.7543 52.4787C93.4029 52.4787 93.1063 52.5284 92.8643 52.6278C92.6224 52.724 92.4368 52.8582 92.3075 53.0305C92.1816 53.2029 92.1186 53.3984 92.1186 53.6172C92.112 53.7995 92.1501 53.9586 92.233 54.0945C92.3191 54.2304 92.4368 54.348 92.5859 54.4474C92.7351 54.5436 92.9074 54.6281 93.103 54.701C93.2985 54.7706 93.5073 54.8303 93.7294 54.88L94.6442 55.0987C95.0883 55.1982 95.496 55.3307 95.8672 55.4964C96.2384 55.6622 96.5599 55.866 96.8317 56.108C97.1035 56.3499 97.3139 56.6349 97.4631 56.9631C97.6155 57.2912 97.6934 57.6674 97.6967 58.0916C97.6934 58.7147 97.5343 59.255 97.2195 59.7124C96.9079 60.1664 96.4571 60.5194 95.8672 60.7713C95.2805 61.0199 94.5729 61.1442 93.7443 61.1442C92.9223 61.1442 92.2064 61.0182 91.5966 60.7663C90.9901 60.5144 90.5161 60.1416 90.1747 59.6477C89.8366 59.1506 89.6593 58.5357 89.6428 57.8033H91.7259C91.7491 58.1446 91.8468 58.4297 92.0192 58.6584C92.1948 58.8838 92.4285 59.0545 92.7202 59.1705C93.0152 59.2831 93.3482 59.3395 93.7195 59.3395C94.084 59.3395 94.4006 59.2865 94.669 59.1804C94.9408 59.0743 95.1513 58.9268 95.3004 58.7379C95.4496 58.549 95.5241 58.3319 95.5241 58.0866C95.5241 57.858 95.4562 57.6657 95.3203 57.5099C95.1877 57.3542 94.9922 57.2216 94.7337 57.1122C94.4785 57.0028 94.1652 56.9034 93.794 56.8139L92.6854 56.5355C91.8269 56.3267 91.1491 56.0002 90.652 55.5561C90.1548 55.112 89.9079 54.5137 89.9112 53.7614C89.9079 53.1449 90.072 52.6063 90.4034 52.1456C90.7382 51.6849 91.1972 51.3253 91.7805 51.0668C92.3639 50.8082 93.0268 50.679 93.7692 50.679C94.5249 50.679 95.1844 50.8082 95.7479 51.0668C96.3146 51.3253 96.7554 51.6849 97.0703 52.1456C97.3852 52.6063 97.5476 53.1399 97.5575 53.7464H95.4943ZM107.661 50.8182V61H105.802L101.372 54.5916H101.297V61H99.1447V50.8182H101.034L105.429 57.2216H105.518V50.8182H107.661ZM111.195 61H108.888L112.403 50.8182H115.177L118.687 61H116.38L113.83 53.1449H113.75L111.195 61ZM111.05 56.9979H116.499V58.6783H111.05V56.9979ZM126.185 54.1094C126.116 53.8674 126.018 53.6536 125.892 53.468C125.766 53.2791 125.612 53.12 125.43 52.9908C125.251 52.8582 125.045 52.7571 124.813 52.6875C124.584 52.6179 124.331 52.5831 124.052 52.5831C123.532 52.5831 123.075 52.7124 122.68 52.9709C122.289 53.2294 121.984 53.6056 121.765 54.0994C121.547 54.59 121.437 55.1899 121.437 55.8991C121.437 56.6084 121.545 57.2116 121.76 57.7088C121.976 58.206 122.281 58.5855 122.675 58.8473C123.07 59.1058 123.535 59.2351 124.072 59.2351C124.559 59.2351 124.975 59.1489 125.32 58.9766C125.668 58.8009 125.933 58.554 126.116 58.2358C126.301 57.9176 126.394 57.5414 126.394 57.1072L126.831 57.1719H124.206V55.5511H128.467V56.8338C128.467 57.7287 128.278 58.4976 127.9 59.1406C127.523 59.7803 127.002 60.2741 126.339 60.6222C125.676 60.9669 124.917 61.1392 124.062 61.1392C123.108 61.1392 122.269 60.9287 121.547 60.5078C120.824 60.0836 120.261 59.482 119.856 58.7031C119.455 57.9209 119.255 56.9929 119.255 55.919C119.255 55.0937 119.374 54.358 119.613 53.7116C119.855 53.062 120.193 52.5118 120.627 52.0611C121.061 51.6103 121.567 51.2673 122.143 51.032C122.72 50.7966 123.345 50.679 124.018 50.679C124.594 50.679 125.131 50.7635 125.628 50.9325C126.126 51.0982 126.566 51.3336 126.951 51.6385C127.339 51.9434 127.655 52.3063 127.9 52.7273C128.146 53.1449 128.303 53.6056 128.373 54.1094H126.185Z" fill="white"/>
</g>
<g clip-path="url(#clip0_2775_29272)">
<path fill-rule="evenodd" clip-rule="evenodd" d="M101.481 23.0001C103.982 22.9815 106.005 24.9335 106 27.3613C105.994 29.7881 103.962 31.7708 101.461 31.7897C91.1475 31.8599 80.833 31.93 70.5191 32.0001C68.0183 32.0191 65.9948 30.0668 66 27.6393C66.0059 25.2121 68.0382 23.2295 70.5389 23.2108C80.8528 23.1407 91.1674 23.0706 101.481 23.0001Z" fill="white"/>
</g>
</g>
<defs>
<filter id="filter0_d_2775_29272" x="0" y="0" width="172" height="82" filterUnits="userSpaceOnUse" color-interpolation-filters="sRGB">
<feFlood flood-opacity="0" result="BackgroundImageFix"/>
<feColorMatrix in="SourceAlpha" type="matrix" values="0 0 0 0 0 0 0 0 0 0 0 0 0 0 0 0 0 0 127 0" result="hardAlpha"/>
<feOffset dy="4"/>
<feGaussianBlur stdDeviation="2"/>
<feComposite in2="hardAlpha" operator="out"/>
<feColorMatrix type="matrix" values="0 0 0 0 0 0 0 0 0 0 0 0 0 0 0 0 0 0 0.25 0"/>
<feBlend mode="normal" in2="BackgroundImageFix" result="effect1_dropShadow_2775_29272"/>
<feBlend mode="normal" in="SourceGraphic" in2="effect1_dropShadow_2775_29272" result="shape"/>
</filter>
<filter id="filter1_d_2775_29272" x="38.8867" y="50.6792" width="93.582" height="18.4648" filterUnits="userSpaceOnUse" color-interpolation-filters="sRGB">
<feFlood flood-opacity="0" result="BackgroundImageFix"/>
<feColorMatrix in="SourceAlpha" type="matrix" values="0 0 0 0 0 0 0 0 0 0 0 0 0 0 0 0 0 0 127 0" result="hardAlpha"/>
<feOffset dy="4"/>
<feGaussianBlur stdDeviation="2"/>
<feComposite in2="hardAlpha" operator="out"/>
<feColorMatrix type="matrix" values="0 0 0 0 0 0 0 0 0 0 0 0 0 0 0 0 0 0 0.25 0"/>
<feBlend mode="normal" in2="BackgroundImageFix" result="effect1_dropShadow_2775_29272"/>
<feBlend mode="normal" in="SourceGraphic" in2="effect1_dropShadow_2775_29272" result="shape"/>
</filter>
<clipPath id="clip0_2775_29272">
<rect width="40" height="9" fill="white" transform="translate(66 23)"/>
</clipPath>
</defs>
</svg>
