<svg width="172" height="82" viewBox="0 0 172 82" fill="none" xmlns="http://www.w3.org/2000/svg">
<g filter="url(#filter0_d_2775_29243)">
<rect x="4" width="164" height="74" rx="12" fill="#D32F2F"/>
<g filter="url(#filter1_d_2775_29243)">
<path d="M41.4013 50.8182V61H39.5419L35.1122 54.5916H35.0376V61H32.8849V50.8182H34.7741L39.169 57.2216H39.2585V50.8182H41.4013ZM52.5364 55.9091C52.5364 57.0194 52.3259 57.964 51.905 58.7429C51.4874 59.5218 50.9173 60.1167 50.1948 60.5277C49.4756 60.9354 48.6668 61.1392 47.7686 61.1392C46.8638 61.1392 46.0518 60.9337 45.3326 60.5227C44.6133 60.1117 44.0449 59.5168 43.6273 58.7379C43.2097 57.959 43.0009 57.0161 43.0009 55.9091C43.0009 54.7988 43.2097 53.8542 43.6273 53.0753C44.0449 52.2964 44.6133 51.7031 45.3326 51.2955C46.0518 50.8845 46.8638 50.679 47.7686 50.679C48.6668 50.679 49.4756 50.8845 50.1948 51.2955C50.9173 51.7031 51.4874 52.2964 51.905 53.0753C52.3259 53.8542 52.5364 54.7988 52.5364 55.9091ZM50.3539 55.9091C50.3539 55.1899 50.2462 54.5833 50.0307 54.0895C49.8186 53.5956 49.5186 53.2211 49.1309 52.9659C48.7431 52.7107 48.289 52.5831 47.7686 52.5831C47.2483 52.5831 46.7942 52.7107 46.4064 52.9659C46.0186 53.2211 45.717 53.5956 45.5016 54.0895C45.2895 54.5833 45.1834 55.1899 45.1834 55.9091C45.1834 56.6283 45.2895 57.2348 45.5016 57.7287C45.717 58.2225 46.0186 58.5971 46.4064 58.8523C46.7942 59.1075 47.2483 59.2351 47.7686 59.2351C48.289 59.2351 48.7431 59.1075 49.1309 58.8523C49.5186 58.5971 49.8186 58.2225 50.0307 57.7287C50.2462 57.2348 50.3539 56.6283 50.3539 55.9091ZM53.2784 52.593V50.8182H61.6406V52.593H58.5234V61H56.3956V52.593H53.2784ZM66.258 61V50.8182H70.275C71.044 50.8182 71.7002 50.9557 72.2438 51.2308C72.7907 51.5026 73.2066 51.8887 73.4917 52.3892C73.78 52.8864 73.9242 53.4714 73.9242 54.1442C73.9242 54.8203 73.7784 55.402 73.4867 55.8892C73.195 56.3731 72.7724 56.7443 72.2189 57.0028C71.6687 57.2614 71.0025 57.3906 70.2203 57.3906H67.5307V55.6605H69.8723C70.2833 55.6605 70.6247 55.6042 70.8965 55.4915C71.1683 55.3788 71.3704 55.2098 71.503 54.9844C71.6389 54.759 71.7069 54.4789 71.7069 54.1442C71.7069 53.8061 71.6389 53.5211 71.503 53.2891C71.3704 53.0571 71.1666 52.8814 70.8915 52.7621C70.6197 52.6394 70.2767 52.5781 69.8624 52.5781H68.4107V61H66.258ZM71.7566 56.3665L74.2871 61H71.9107L69.4348 56.3665H71.7566ZM75.4455 61V50.8182H82.3063V52.593H77.5982V55.0192H81.9533V56.794H77.5982V59.2251H82.3262V61H75.4455ZM93.0014 54.3828H90.8239C90.7841 54.1011 90.7029 53.8509 90.5803 53.6321C90.4576 53.41 90.3002 53.2211 90.108 53.0653C89.9157 52.9096 89.6937 52.7902 89.4418 52.7074C89.1932 52.6245 88.9231 52.5831 88.6314 52.5831C88.1044 52.5831 87.6454 52.714 87.2543 52.9759C86.8632 53.2344 86.5599 53.6122 86.3445 54.1094C86.129 54.6032 86.0213 55.2031 86.0213 55.9091C86.0213 56.6349 86.129 57.2448 86.3445 57.7386C86.5632 58.2325 86.8681 58.6054 87.2592 58.8572C87.6503 59.1091 88.1027 59.2351 88.6165 59.2351C88.9048 59.2351 89.1716 59.197 89.4169 59.1207C89.6655 59.0445 89.8859 58.9335 90.0781 58.7876C90.2704 58.6385 90.4295 58.4579 90.5554 58.2457C90.6847 58.0336 90.7741 57.7917 90.8239 57.5199L93.0014 57.5298C92.9451 57.9972 92.8042 58.4479 92.5788 58.8821C92.3568 59.313 92.0568 59.6991 91.679 60.0405C91.3045 60.3786 90.857 60.647 90.3366 60.8459C89.8196 61.0414 89.2346 61.1392 88.5817 61.1392C87.6735 61.1392 86.8615 60.9337 86.1456 60.5227C85.433 60.1117 84.8696 59.5168 84.4553 58.7379C84.0443 57.959 83.8388 57.0161 83.8388 55.9091C83.8388 54.7988 84.0476 53.8542 84.4652 53.0753C84.8828 52.2964 85.4496 51.7031 86.1655 51.2955C86.8814 50.8845 87.6868 50.679 88.5817 50.679C89.1716 50.679 89.7185 50.7618 90.2223 50.9276C90.7294 51.0933 91.1785 51.3352 91.5696 51.6534C91.9607 51.9683 92.2789 52.3544 92.5241 52.8118C92.7727 53.2692 92.9318 53.7929 93.0014 54.3828ZM94.1573 52.593V50.8182H102.52V52.593H99.4023V61H97.2745V52.593H94.1573ZM106.049 50.8182V61H103.897V50.8182H106.049ZM107.82 61V50.8182H114.562V52.593H109.973V55.0192H114.115V56.794H109.973V61H107.82ZM118.163 50.8182V61H116.01V50.8182H118.163ZM119.934 61V50.8182H126.795V52.593H122.086V55.0192H126.442V56.794H122.086V59.2251H126.814V61H119.934ZM132.115 61H128.506V50.8182H132.145C133.169 50.8182 134.051 51.022 134.79 51.4297C135.529 51.834 136.098 52.4157 136.495 53.1747C136.896 53.9337 137.097 54.8419 137.097 55.8991C137.097 56.9598 136.896 57.8712 136.495 58.6335C136.098 59.3958 135.526 59.9808 134.78 60.3885C134.038 60.7962 133.15 61 132.115 61ZM130.659 59.1555H132.026C132.662 59.1555 133.198 59.0429 133.632 58.8175C134.069 58.5888 134.397 58.2358 134.616 57.7585C134.838 57.2779 134.949 56.6581 134.949 55.8991C134.949 55.1468 134.838 54.532 134.616 54.0547C134.397 53.5774 134.071 53.2261 133.637 53.0007C133.203 52.7753 132.667 52.6626 132.031 52.6626H130.659V59.1555Z" fill="white"/>
</g>
<g clip-path="url(#clip0_2775_29243)">
<path d="M76.1753 18.0394L92.9722 34.8241C91.1708 36.1061 89.0511 36.867 86.8457 37.0234C84.6402 37.1798 82.4344 36.7255 80.4701 35.7105C78.5059 34.6955 76.8593 33.1589 75.7111 31.2695C74.5628 29.3801 73.9573 27.2109 73.961 24.9999C73.9573 22.5059 74.7314 20.0729 76.1753 18.0394ZM95.1499 32.827L78.1748 15.8593C80.4768 13.8861 83.4392 12.8553 86.4687 12.9735C89.4983 13.0917 92.3715 14.35 94.5127 16.4965C96.6582 18.6368 97.9159 21.5086 98.0341 24.5368C98.1522 27.565 97.1221 30.5261 95.1499 32.827Z" fill="white"/>
<path fill-rule="evenodd" clip-rule="evenodd" d="M91.567 18.545C91.4905 18.4659 91.3986 18.4034 91.297 18.3614C91.1953 18.3194 91.0861 18.2988 90.9761 18.3008C90.8665 18.2987 90.7576 18.3193 90.6564 18.3613C90.5551 18.4033 90.4636 18.4658 90.3878 18.545L89.4869 19.441C89.2433 19.2845 88.9887 19.1458 88.7252 19.0259C88.4594 18.9052 88.1872 18.7993 87.9097 18.7086V17.3243C87.911 17.2149 87.8905 17.1064 87.8492 17.0051C87.808 16.9038 87.7469 16.8117 87.6695 16.7344C87.5922 16.6571 87.5002 16.596 87.3989 16.5547C87.2975 16.5135 87.189 16.4929 87.0797 16.4942H85.3487C85.2404 16.4936 85.1331 16.5149 85.0332 16.5569C84.9334 16.5989 84.843 16.6606 84.7676 16.7383C84.6882 16.8145 84.6255 16.9064 84.5834 17.0081C84.5414 17.1098 84.521 17.2191 84.5235 17.3292V18.5914C83.9595 18.724 83.4159 18.9317 82.9073 19.209L81.9112 18.2325C81.8384 18.1534 81.7496 18.0907 81.6506 18.0486C81.5517 18.0065 81.4449 17.9859 81.3375 17.9883C81.2276 17.987 81.1186 18.0079 81.017 18.0499C80.9155 18.0919 80.8235 18.154 80.7466 18.2325L79.5259 19.4532C79.4466 19.5295 79.3834 19.6211 79.3403 19.7224C79.2971 19.8237 79.2749 19.9327 79.2749 20.0428C79.2749 20.1529 79.2971 20.2619 79.3403 20.3632C79.3834 20.4645 79.4466 20.5561 79.5259 20.6324L80.4219 21.5333C80.265 21.7766 80.1262 22.0312 80.0069 22.295C79.8858 22.5606 79.7798 22.8328 79.6895 23.1104H78.3223C78.213 23.1091 78.1044 23.1297 78.0031 23.1709C77.9018 23.2122 77.8098 23.2733 77.7325 23.3506C77.6551 23.428 77.594 23.52 77.5528 23.6213C77.5115 23.7226 77.4909 23.8311 77.4922 23.9405V25.6495C77.4917 25.7578 77.513 25.8651 77.5549 25.9649C77.5969 26.0648 77.6586 26.1551 77.7364 26.2305C77.8126 26.31 77.9044 26.3727 78.0061 26.4147C78.1078 26.4568 78.2172 26.4772 78.3272 26.4747H79.5894C79.6558 26.7604 79.7422 27.041 79.8482 27.3145C79.9521 27.5847 80.0711 27.8487 80.2046 28.1055L79.2281 29.0821C79.1492 29.1556 79.0866 29.2448 79.0446 29.3441C79.0025 29.4434 78.9818 29.5505 78.9839 29.6583C78.9829 29.7681 79.004 29.877 79.0459 29.9785C79.0878 30.08 79.1498 30.172 79.2281 30.2491L80.4488 31.4698C80.6083 31.6202 80.8192 31.7039 81.0384 31.7039C81.2576 31.7039 81.4685 31.6202 81.628 31.4698L82.5289 30.5567C82.7651 30.7212 83.0132 30.8681 83.2711 30.9962C83.5366 31.1173 83.8089 31.2233 84.0865 31.3135V32.6807C84.0852 32.7899 84.1057 32.8982 84.1468 32.9993C84.1879 33.1005 84.2488 33.1924 84.3258 33.2697C84.4029 33.347 84.4947 33.4082 84.5957 33.4496C84.6967 33.491 84.805 33.5118 84.9141 33.5108H86.6475C86.7559 33.5117 86.8633 33.4905 86.9632 33.4485C87.0631 33.4065 87.1534 33.3447 87.2286 33.2667C87.3081 33.1911 87.3709 33.0996 87.4129 32.9983C87.455 32.897 87.4753 32.788 87.4727 32.6783V31.4185C87.7584 31.3522 88.0391 31.2657 88.3126 31.1597C88.5832 31.056 88.8473 30.9362 89.1036 30.8008L90.0801 31.7774C90.1552 31.8568 90.2457 31.92 90.346 31.9632C90.4463 32.0064 90.5544 32.0286 90.6636 32.0286C90.7729 32.0286 90.8809 32.0064 90.9813 31.9632C91.0816 31.92 91.1721 31.8568 91.2471 31.7774L92.4678 30.5567C92.6182 30.3972 92.702 30.1863 92.702 29.9671C92.702 29.7479 92.6182 29.537 92.4678 29.3775L91.5547 28.4766C91.7191 28.2377 91.866 27.9872 91.9942 27.7271C92.1153 27.4615 92.2213 27.1893 92.3116 26.9117H93.6788C93.7884 26.9136 93.8971 26.8928 93.9984 26.8508C94.0996 26.8088 94.1911 26.7464 94.2671 26.6675C94.3464 26.5917 94.409 26.5003 94.4511 26.399C94.4931 26.2977 94.5136 26.1888 94.5113 26.0792V24.3506C94.5122 24.2423 94.491 24.1349 94.449 24.035C94.407 23.9351 94.3451 23.8448 94.2671 23.7696C94.1915 23.6901 94.1001 23.6273 93.9988 23.5853C93.8975 23.5432 93.7885 23.5228 93.6788 23.5255H92.4166C92.3473 23.2437 92.2609 22.9665 92.1578 22.6954C92.0569 22.426 91.9369 22.1641 91.7989 21.9117L92.7755 20.918C92.8547 20.8449 92.9175 20.7556 92.9596 20.6563C93.0017 20.5569 93.0222 20.4497 93.0196 20.3419C93.0208 20.232 92.9998 20.1231 92.9578 20.0215C92.9159 19.92 92.8538 19.828 92.7755 19.751L91.5547 18.5303L91.567 18.545ZM85.9981 21.6089C86.4517 21.6065 86.901 21.6962 87.3189 21.8726C88.1336 22.2125 88.7823 22.8586 89.1255 23.6719C89.2996 24.091 89.3891 24.5402 89.3891 24.994C89.3891 25.4477 89.2996 25.8969 89.1255 26.316C88.7843 27.1323 88.1353 27.7814 87.3189 28.1226C86.9003 28.2967 86.4514 28.3863 85.9981 28.3863C85.5448 28.3863 85.0959 28.2967 84.6773 28.1226C83.861 27.7814 83.2119 27.1323 82.8707 26.316C82.6967 25.8969 82.6071 25.4477 82.6071 24.994C82.6071 24.5402 82.6967 24.091 82.8707 23.6719C83.2122 22.86 83.8581 22.2141 84.67 21.8726C85.0879 21.6962 85.5372 21.6065 85.9908 21.6089H85.9981Z" fill="black"/>
<path d="M86.0004 10C82.2849 10.0027 78.7031 11.3872 75.9518 13.8843C73.2004 16.3813 71.4761 19.8124 71.1142 23.5103C70.7523 27.2082 71.7786 30.9085 73.9937 33.8916C76.2087 36.8747 79.4541 38.9274 83.0986 39.6504C86.7431 40.3734 90.5263 39.7151 93.7123 37.8035C96.8984 35.8918 99.2596 32.8635 100.337 29.3076C101.414 25.7516 101.13 21.922 99.5402 18.5638C97.9504 15.2055 95.1684 12.5586 91.7353 11.1377C89.9171 10.3851 87.9683 9.99845 86.0004 10ZM76.1762 18.0396L92.9731 34.8242C91.3094 36.0004 89.3751 36.7364 87.3504 36.9635C85.3257 37.1906 83.2764 36.9015 81.3935 36.1231C78.4442 34.8967 76.0999 32.5533 74.8725 29.6045C74.2679 28.1449 73.9584 26.5799 73.9618 25C73.9551 22.5056 74.7295 20.0716 76.1762 18.0396ZM95.1508 32.8272L78.1733 15.8594C80.4777 13.9001 83.435 12.8799 86.4573 13.0016C89.4795 13.1233 92.3453 14.3779 94.4847 16.5161C96.6241 18.6543 97.8804 21.5193 98.0038 24.5415C98.1273 27.5637 97.1087 30.5216 95.1508 32.8272Z" fill="black"/>
</g>
</g>
<defs>
<filter id="filter0_d_2775_29243" x="0" y="0" width="172" height="82" filterUnits="userSpaceOnUse" color-interpolation-filters="sRGB">
<feFlood flood-opacity="0" result="BackgroundImageFix"/>
<feColorMatrix in="SourceAlpha" type="matrix" values="0 0 0 0 0 0 0 0 0 0 0 0 0 0 0 0 0 0 127 0" result="hardAlpha"/>
<feOffset dy="4"/>
<feGaussianBlur stdDeviation="2"/>
<feComposite in2="hardAlpha" operator="out"/>
<feColorMatrix type="matrix" values="0 0 0 0 0 0 0 0 0 0 0 0 0 0 0 0 0 0 0.25 0"/>
<feBlend mode="normal" in2="BackgroundImageFix" result="effect1_dropShadow_2775_29243"/>
<feBlend mode="normal" in="SourceGraphic" in2="effect1_dropShadow_2775_29243" result="shape"/>
</filter>
<filter id="filter1_d_2775_29243" x="28.8867" y="50.6792" width="112.211" height="18.46" filterUnits="userSpaceOnUse" color-interpolation-filters="sRGB">
<feFlood flood-opacity="0" result="BackgroundImageFix"/>
<feColorMatrix in="SourceAlpha" type="matrix" values="0 0 0 0 0 0 0 0 0 0 0 0 0 0 0 0 0 0 127 0" result="hardAlpha"/>
<feOffset dy="4"/>
<feGaussianBlur stdDeviation="2"/>
<feComposite in2="hardAlpha" operator="out"/>
<feColorMatrix type="matrix" values="0 0 0 0 0 0 0 0 0 0 0 0 0 0 0 0 0 0 0.25 0"/>
<feBlend mode="normal" in2="BackgroundImageFix" result="effect1_dropShadow_2775_29243"/>
<feBlend mode="normal" in="SourceGraphic" in2="effect1_dropShadow_2775_29243" result="shape"/>
</filter>
<clipPath id="clip0_2775_29243">
<rect width="30" height="30" fill="white" transform="translate(71 10)"/>
</clipPath>
</defs>
</svg>
