<svg width="144" height="74" viewBox="0 0 144 74" fill="none" xmlns="http://www.w3.org/2000/svg">
<rect width="144" height="74" rx="12" fill="#1976D2"/>
<g filter="url(#filter0_d_2775_29219)">
<path d="M37.2415 55.9091C37.2415 57.0194 37.031 57.964 36.6101 58.7429C36.1925 59.5218 35.6224 60.1167 34.8999 60.5277C34.1806 60.9354 33.3719 61.1392 32.4737 61.1392C31.5689 61.1392 30.7569 60.9337 30.0376 60.5227C29.3184 60.1117 28.75 59.5168 28.3324 58.7379C27.9148 57.959 27.706 57.0161 27.706 55.9091C27.706 54.7988 27.9148 53.8542 28.3324 53.0753C28.75 52.2964 29.3184 51.7031 30.0376 51.2955C30.7569 50.8845 31.5689 50.679 32.4737 50.679C33.3719 50.679 34.1806 50.8845 34.8999 51.2955C35.6224 51.7031 36.1925 52.2964 36.6101 53.0753C37.031 53.8542 37.2415 54.7988 37.2415 55.9091ZM35.0589 55.9091C35.0589 55.1899 34.9512 54.5833 34.7358 54.0895C34.5237 53.5956 34.2237 53.2211 33.8359 52.9659C33.4482 52.7107 32.9941 52.5831 32.4737 52.5831C31.9534 52.5831 31.4993 52.7107 31.1115 52.9659C30.7237 53.2211 30.4221 53.5956 30.2067 54.0895C29.9946 54.5833 29.8885 55.1899 29.8885 55.9091C29.8885 56.6283 29.9946 57.2348 30.2067 57.7287C30.4221 58.2225 30.7237 58.5971 31.1115 58.8523C31.4993 59.1075 31.9534 59.2351 32.4737 59.2351C32.9941 59.2351 33.4482 59.1075 33.8359 58.8523C34.2237 58.5971 34.5237 58.2225 34.7358 57.7287C34.9512 57.2348 35.0589 56.6283 35.0589 55.9091ZM38.8361 61V50.8182H42.9128C43.6619 50.8182 44.2866 50.9292 44.7871 51.1513C45.2876 51.3733 45.6638 51.6816 45.9157 52.076C46.1676 52.4671 46.2935 52.9179 46.2935 53.4283C46.2935 53.826 46.214 54.1757 46.0549 54.4773C45.8958 54.7756 45.677 55.0208 45.3986 55.2131C45.1235 55.402 44.8087 55.5362 44.454 55.6158V55.7152C44.8418 55.7318 45.2047 55.8411 45.5428 56.0433C45.8842 56.2455 46.1609 56.5289 46.373 56.8935C46.5852 57.2547 46.6912 57.6856 46.6912 58.1861C46.6912 58.7263 46.557 59.2086 46.2885 59.6328C46.0234 60.0537 45.6306 60.3868 45.1103 60.6321C44.5899 60.8774 43.9486 61 43.1863 61H38.8361ZM40.9888 59.2401H42.7438C43.3437 59.2401 43.7812 59.1257 44.0563 58.897C44.3314 58.665 44.4689 58.3568 44.4689 57.9723C44.4689 57.6906 44.401 57.442 44.2651 57.2266C44.1292 57.0111 43.9353 56.8421 43.6834 56.7195C43.4348 56.5968 43.1382 56.5355 42.7935 56.5355H40.9888V59.2401ZM40.9888 55.0788H42.5847C42.8797 55.0788 43.1415 55.0275 43.3702 54.9247C43.6022 54.8187 43.7845 54.6695 43.9171 54.4773C44.053 54.285 44.1209 54.0547 44.1209 53.7862C44.1209 53.4183 43.99 53.1217 43.7282 52.8963C43.4696 52.6709 43.1017 52.5582 42.6245 52.5582H40.9888V55.0788ZM53.6154 53.7464C53.5756 53.3454 53.4049 53.0339 53.1033 52.8118C52.8017 52.5897 52.3924 52.4787 51.8754 52.4787C51.524 52.4787 51.2274 52.5284 50.9854 52.6278C50.7435 52.724 50.5579 52.8582 50.4286 53.0305C50.3027 53.2029 50.2397 53.3984 50.2397 53.6172C50.2331 53.7995 50.2712 53.9586 50.354 54.0945C50.4402 54.2304 50.5579 54.348 50.707 54.4474C50.8562 54.5436 51.0285 54.6281 51.2241 54.701C51.4196 54.7706 51.6284 54.8303 51.8505 54.88L52.7653 55.0987C53.2094 55.1982 53.6171 55.3307 53.9883 55.4964C54.3595 55.6622 54.681 55.866 54.9528 56.108C55.2246 56.3499 55.435 56.6349 55.5842 56.9631C55.7366 57.2912 55.8145 57.6674 55.8178 58.0916C55.8145 58.7147 55.6554 59.255 55.3406 59.7124C55.029 60.1664 54.5782 60.5194 53.9883 60.7713C53.4016 61.0199 52.694 61.1442 51.8654 61.1442C51.0434 61.1442 50.3275 61.0182 49.7177 60.7663C49.1112 60.5144 48.6372 60.1416 48.2958 59.6477C47.9577 59.1506 47.7804 58.5357 47.7638 57.8033H49.8469C49.8701 58.1446 49.9679 58.4297 50.1403 58.6584C50.3159 58.8838 50.5496 59.0545 50.8413 59.1705C51.1362 59.2831 51.4693 59.3395 51.8406 59.3395C52.2051 59.3395 52.5217 59.2865 52.7901 59.1804C53.0619 59.0743 53.2724 58.9268 53.4215 58.7379C53.5707 58.549 53.6452 58.3319 53.6452 58.0866C53.6452 57.858 53.5773 57.6657 53.4414 57.5099C53.3088 57.3542 53.1133 57.2216 52.8548 57.1122C52.5996 57.0028 52.2863 56.9034 51.9151 56.8139L50.8065 56.5355C49.948 56.3267 49.2702 56.0002 48.7731 55.5561C48.2759 55.112 48.029 54.5137 48.0323 53.7614C48.029 53.1449 48.1931 52.6063 48.5245 52.1456C48.8593 51.6849 49.3183 51.3253 49.9016 51.0668C50.485 50.8082 51.1478 50.679 51.8903 50.679C52.646 50.679 53.3055 50.8082 53.869 51.0668C54.4357 51.3253 54.8765 51.6849 55.1914 52.1456C55.5063 52.6063 55.6687 53.1399 55.6786 53.7464H53.6154ZM57.2658 61V50.8182H64.1266V52.593H59.4185V55.0192H63.7736V56.794H59.4185V59.2251H64.1465V61H57.2658ZM67.6776 50.8182L70.1385 58.554H70.233L72.6989 50.8182H75.0852L71.5753 61H68.8011L65.2862 50.8182H67.6776ZM76.7122 61H74.4054L77.9203 50.8182H80.6944L84.2044 61H81.8975L79.3471 53.1449H79.2676L76.7122 61ZM76.568 56.9979H82.0169V58.6783H76.568V56.9979ZM83.7979 52.593V50.8182H92.1602V52.593H89.043V61H86.9151V52.593H83.7979ZM95.69 50.8182V61H93.5373V50.8182H95.69ZM106.818 55.9091C106.818 57.0194 106.607 57.964 106.186 58.7429C105.769 59.5218 105.199 60.1167 104.476 60.5277C103.757 60.9354 102.948 61.1392 102.05 61.1392C101.145 61.1392 100.333 60.9337 99.6138 60.5227C98.8946 60.1117 98.3262 59.5168 97.9086 58.7379C97.4909 57.959 97.2821 57.0161 97.2821 55.9091C97.2821 54.7988 97.4909 53.8542 97.9086 53.0753C98.3262 52.2964 98.8946 51.7031 99.6138 51.2955C100.333 50.8845 101.145 50.679 102.05 50.679C102.948 50.679 103.757 50.8845 104.476 51.2955C105.199 51.7031 105.769 52.2964 106.186 53.0753C106.607 53.8542 106.818 54.7988 106.818 55.9091ZM104.635 55.9091C104.635 55.1899 104.527 54.5833 104.312 54.0895C104.1 53.5956 103.8 53.2211 103.412 52.9659C103.024 52.7107 102.57 52.5831 102.05 52.5831C101.53 52.5831 101.075 52.7107 100.688 52.9659C100.3 53.2211 99.9983 53.5956 99.7828 54.0895C99.5707 54.5833 99.4647 55.1899 99.4647 55.9091C99.4647 56.6283 99.5707 57.2348 99.7828 57.7287C99.9983 58.2225 100.3 58.5971 100.688 58.8523C101.075 59.1075 101.53 59.2351 102.05 59.2351C102.57 59.2351 103.024 59.1075 103.412 58.8523C103.8 58.5971 104.1 58.2225 104.312 57.7287C104.527 57.2348 104.635 56.6283 104.635 55.9091ZM116.929 50.8182V61H115.069L110.64 54.5916H110.565V61H108.412V50.8182H110.301L114.696 57.2216H114.786V50.8182H116.929Z" fill="white"/>
</g>
<g clip-path="url(#clip0_2775_29219)">
<path fill-rule="evenodd" clip-rule="evenodd" d="M71.9993 15.4708C73.6053 15.4641 75.1636 16.1029 76.4088 17.2782C77.6539 18.4535 78.5088 20.0927 78.8277 21.9164C79.1467 23.7401 78.91 25.6356 78.158 27.2798C77.4059 28.9239 76.1851 30.2152 74.7036 30.9334C73.222 31.6516 71.5713 31.7524 70.0327 31.2187C68.4942 30.6849 67.163 29.5495 66.2659 28.006C65.3689 26.4626 64.9615 24.6065 65.1132 22.754C65.2649 20.9015 65.9663 19.1673 67.0979 17.8469C67.7394 17.0961 68.5027 16.4997 69.3439 16.0919C70.185 15.6841 71.0875 15.4731 71.9993 15.4708ZM51.3582 22.401C52.4453 20.8707 53.624 19.431 54.8855 18.0924C59.7971 12.9126 65.3821 10.1445 71.1653 10.0019C76.9485 9.85932 82.8171 12.3463 88.3748 17.6528C89.8991 19.1169 91.3314 20.7049 92.6609 22.4049C92.8675 22.6745 92.9885 23.0176 93.004 23.3776C93.0196 23.7376 92.9287 24.0929 92.7463 24.385C91.2674 26.8276 89.4975 29.0154 87.4895 30.8835C83.295 34.8108 78.0723 36.9684 72.6794 37.0019C67.2477 36.9855 61.957 34.9966 57.5515 31.3152C55.1948 29.3757 53.0876 27.0583 51.2932 24.4325C51.0927 24.1408 50.989 23.7755 51.0009 23.4028C51.0128 23.0301 51.1396 22.6747 51.3582 22.401ZM56.7004 20.4209C55.7887 21.3808 54.9227 22.3974 54.1062 23.4662C55.5783 25.4618 57.2566 27.24 59.1033 28.7609C63.0528 32.0671 67.7967 33.8577 72.6692 33.8813C77.4504 33.8472 82.0797 31.9314 85.7976 28.4481C87.3303 27.0233 88.7076 25.3876 89.8992 23.5771C88.8772 22.3348 87.7929 21.1632 86.6521 20.0685C81.6106 15.253 76.3196 13.0036 71.2029 13.1264C66.0862 13.2492 61.1267 15.7361 56.7004 20.4051V20.4209ZM70.2664 17.336C70.7984 17.336 71.3185 17.5188 71.7608 17.8612C72.2032 18.2037 72.5479 18.6904 72.7515 19.2599C72.9551 19.8294 73.0084 20.4561 72.9046 21.0606C72.8008 21.6652 72.5446 22.2205 72.1684 22.6564C71.7922 23.0922 71.3129 23.3891 70.7911 23.5093C70.2693 23.6296 69.7285 23.5679 69.237 23.332C68.7454 23.0961 68.3253 22.6966 68.0298 22.1841C67.7342 21.6716 67.5764 21.069 67.5764 20.4526C67.576 20.0432 67.6452 19.6377 67.7803 19.2593C67.9153 18.881 68.1134 18.5372 68.3633 18.2477C68.6132 17.9582 68.9099 17.7286 69.2364 17.5722C69.563 17.4157 69.913 17.3355 70.2664 17.336Z" fill="white"/>
</g>
<defs>
<filter id="filter0_d_2775_29219" x="23.707" y="50.6792" width="97.2227" height="18.4648" filterUnits="userSpaceOnUse" color-interpolation-filters="sRGB">
<feFlood flood-opacity="0" result="BackgroundImageFix"/>
<feColorMatrix in="SourceAlpha" type="matrix" values="0 0 0 0 0 0 0 0 0 0 0 0 0 0 0 0 0 0 127 0" result="hardAlpha"/>
<feOffset dy="4"/>
<feGaussianBlur stdDeviation="2"/>
<feComposite in2="hardAlpha" operator="out"/>
<feColorMatrix type="matrix" values="0 0 0 0 0 0 0 0 0 0 0 0 0 0 0 0 0 0 0.25 0"/>
<feBlend mode="normal" in2="BackgroundImageFix" result="effect1_dropShadow_2775_29219"/>
<feBlend mode="normal" in="SourceGraphic" in2="effect1_dropShadow_2775_29219" result="shape"/>
</filter>
<clipPath id="clip0_2775_29219">
<rect width="42" height="27" fill="white" transform="translate(51 10)"/>
</clipPath>
</defs>
</svg>
