<svg width="144" height="74" viewBox="0 0 144 74" fill="none" xmlns="http://www.w3.org/2000/svg">
<rect width="144" height="74" rx="12" fill="#2E7D32"/>
<path fill-rule="evenodd" clip-rule="evenodd" d="M56.2204 23.7657H62.1321C62.4548 23.7672 62.7638 23.8989 62.9915 24.132C63.2191 24.365 63.3469 24.6805 63.3469 25.0094V41.5262C63.3455 41.8547 63.2172 42.1693 62.9898 42.4021C62.7625 42.6348 62.4544 42.767 62.1321 42.77H56.2204C55.8972 42.7685 55.5876 42.637 55.3591 42.4041C55.1305 42.1711 55.0015 41.8556 55 41.5262V25.0094C55.0015 24.68 55.1305 24.3645 55.3591 24.1316C55.5876 23.8987 55.8972 23.7672 56.2204 23.7657ZM71.7274 11.3795C72.3656 8.05898 77.6951 11.117 78.0478 16.4629C78.1265 18.3632 77.9742 20.2661 77.5944 22.1282H85.2135C88.3765 22.2595 91.142 24.5701 89.1882 28.3641C89.6361 30.0187 89.7033 31.9585 88.4941 32.7287C88.6452 35.336 87.9342 36.9563 86.6075 38.2343C86.5822 39.4243 86.2376 40.5845 85.611 41.589C84.5865 43.061 83.758 42.7301 82.1457 42.7301H69.2698C67.2321 42.7301 66.1236 42.1595 64.7913 40.4479V25.8253C68.6596 24.7812 70.6974 19.4353 71.7274 15.9266V11.3623V11.3795Z" fill="white"/>
<g filter="url(#filter0_d_2775_29215)">
<path d="M72.2415 58.9091C72.2415 60.0194 72.031 60.964 71.6101 61.7429C71.1925 62.5218 70.6224 63.1167 69.8999 63.5277C69.1806 63.9354 68.3719 64.1392 67.4737 64.1392C66.5689 64.1392 65.7569 63.9337 65.0376 63.5227C64.3184 63.1117 63.75 62.5168 63.3324 61.7379C62.9148 60.959 62.706 60.0161 62.706 58.9091C62.706 57.7988 62.9148 56.8542 63.3324 56.0753C63.75 55.2964 64.3184 54.7031 65.0376 54.2955C65.7569 53.8845 66.5689 53.679 67.4737 53.679C68.3719 53.679 69.1806 53.8845 69.8999 54.2955C70.6224 54.7031 71.1925 55.2964 71.6101 56.0753C72.031 56.8542 72.2415 57.7988 72.2415 58.9091ZM70.0589 58.9091C70.0589 58.1899 69.9512 57.5833 69.7358 57.0895C69.5237 56.5956 69.2237 56.2211 68.8359 55.9659C68.4482 55.7107 67.9941 55.5831 67.4737 55.5831C66.9534 55.5831 66.4993 55.7107 66.1115 55.9659C65.7237 56.2211 65.4221 56.5956 65.2067 57.0895C64.9946 57.5833 64.8885 58.1899 64.8885 58.9091C64.8885 59.6283 64.9946 60.2348 65.2067 60.7287C65.4221 61.2225 65.7237 61.5971 66.1115 61.8523C66.4993 62.1075 66.9534 62.2351 67.4737 62.2351C67.9941 62.2351 68.4482 62.1075 68.8359 61.8523C69.2237 61.5971 69.5237 61.2225 69.7358 60.7287C69.9512 60.2348 70.0589 59.6283 70.0589 58.9091ZM73.8361 64V53.8182H75.9888V58.3075H76.123L79.7871 53.8182H82.3674L78.589 58.3771L82.4121 64H79.8368L77.0478 59.8139L75.9888 61.1065V64H73.8361Z" fill="white"/>
</g>
<defs>
<filter id="filter0_d_2775_29215" x="58.707" y="53.6792" width="27.707" height="18.46" filterUnits="userSpaceOnUse" color-interpolation-filters="sRGB">
<feFlood flood-opacity="0" result="BackgroundImageFix"/>
<feColorMatrix in="SourceAlpha" type="matrix" values="0 0 0 0 0 0 0 0 0 0 0 0 0 0 0 0 0 0 127 0" result="hardAlpha"/>
<feOffset dy="4"/>
<feGaussianBlur stdDeviation="2"/>
<feComposite in2="hardAlpha" operator="out"/>
<feColorMatrix type="matrix" values="0 0 0 0 0 0 0 0 0 0 0 0 0 0 0 0 0 0 0.25 0"/>
<feBlend mode="normal" in2="BackgroundImageFix" result="effect1_dropShadow_2775_29215"/>
<feBlend mode="normal" in="SourceGraphic" in2="effect1_dropShadow_2775_29215" result="shape"/>
</filter>
</defs>
</svg>
