<svg width="180" height="82" viewBox="0 0 180 82" fill="none" xmlns="http://www.w3.org/2000/svg">
<g filter="url(#filter0_d_2775_29246)">
<rect x="4" width="172" height="74" rx="12" fill="#ED6C02"/>
<g filter="url(#filter1_d_2775_29246)">
<path d="M12.8849 61V50.8182H16.902C17.6742 50.8182 18.3321 50.9657 18.8757 51.2607C19.4193 51.5523 19.8336 51.9583 20.1186 52.4787C20.407 52.9957 20.5511 53.5923 20.5511 54.2685C20.5511 54.9446 20.4053 55.5412 20.1136 56.0582C19.822 56.5753 19.3994 56.978 18.8459 57.2663C18.2957 57.5547 17.6295 57.6989 16.8473 57.6989H14.2869V55.9737H16.4993C16.9136 55.9737 17.255 55.9025 17.5234 55.7599C17.7952 55.6141 17.9974 55.4136 18.13 55.1584C18.2659 54.8999 18.3338 54.6032 18.3338 54.2685C18.3338 53.9304 18.2659 53.6354 18.13 53.3835C17.9974 53.1283 17.7952 52.9311 17.5234 52.7919C17.2517 52.6494 16.907 52.5781 16.4893 52.5781H15.0376V61H12.8849ZM22.5286 61H20.2218L23.7367 50.8182H26.5108L30.0208 61H27.714L25.1635 53.1449H25.084L22.5286 61ZM22.3844 56.9979H27.8333V58.6783H22.3844V56.9979ZM31.2463 61V50.8182H35.2633C36.0323 50.8182 36.6885 50.9557 37.2321 51.2308C37.7789 51.5026 38.1949 51.8887 38.4799 52.3892C38.7683 52.8864 38.9125 53.4714 38.9125 54.1442C38.9125 54.8203 38.7666 55.402 38.475 55.8892C38.1833 56.3731 37.7607 56.7443 37.2072 57.0028C36.657 57.2614 35.9908 57.3906 35.2086 57.3906H32.519V55.6605H34.8606C35.2716 55.6605 35.613 55.6042 35.8848 55.4915C36.1565 55.3788 36.3587 55.2098 36.4913 54.9844C36.6272 54.759 36.6951 54.4789 36.6951 54.1442C36.6951 53.8061 36.6272 53.5211 36.4913 53.2891C36.3587 53.0571 36.1549 52.8814 35.8798 52.7621C35.608 52.6394 35.265 52.5781 34.8507 52.5781H33.399V61H31.2463ZM36.7449 56.3665L39.2754 61H36.899L34.4231 56.3665H36.7449ZM40.046 52.593V50.8182H48.4082V52.593H45.291V61H43.1632V52.593H40.046ZM51.938 50.8182V61H49.7853V50.8182H51.938ZM55.4641 61H53.1573L56.6722 50.8182H59.4464L62.9563 61H60.6495L58.0991 53.1449H58.0195L55.4641 61ZM55.32 56.9979H60.7688V58.6783H55.32V56.9979ZM64.1818 61V50.8182H66.3345V59.2251H70.6996V61H64.1818ZM72.1252 61V50.8182H74.2779V59.2251H78.6429V61H72.1252ZM78.1731 50.8182H80.5843L82.9061 55.2031H83.0055L85.3272 50.8182H87.7385L84.0247 57.4006V61H81.8869V57.4006L78.1731 50.8182ZM92.1545 61V50.8182H96.1715C96.9405 50.8182 97.5967 50.9557 98.1403 51.2308C98.6871 51.5026 99.1031 51.8887 99.3881 52.3892C99.6765 52.8864 99.8207 53.4714 99.8207 54.1442C99.8207 54.8203 99.6748 55.402 99.3832 55.8892C99.0915 56.3731 98.6689 56.7443 98.1154 57.0028C97.5652 57.2614 96.899 57.3906 96.1168 57.3906H93.4272V55.6605H95.7688C96.1798 55.6605 96.5212 55.6042 96.793 55.4915C97.0647 55.3788 97.2669 55.2098 97.3995 54.9844C97.5354 54.759 97.6033 54.4789 97.6033 54.1442C97.6033 53.8061 97.5354 53.5211 97.3995 53.2891C97.2669 53.0571 97.0631 52.8814 96.788 52.7621C96.5162 52.6394 96.1732 52.5781 95.7589 52.5781H94.3072V61H92.1545ZM97.6531 56.3665L100.184 61H97.8072L95.3313 56.3665H97.6531ZM101.342 61V50.8182H108.203V52.593H103.495V55.0192H107.85V56.794H103.495V59.2251H108.223V61H101.342ZM118.898 54.3828H116.72C116.681 54.1011 116.599 53.8509 116.477 53.6321C116.354 53.41 116.197 53.2211 116.004 53.0653C115.812 52.9096 115.59 52.7902 115.338 52.7074C115.09 52.6245 114.82 52.5831 114.528 52.5831C114.001 52.5831 113.542 52.714 113.151 52.9759C112.76 53.2344 112.456 53.6122 112.241 54.1094C112.026 54.6032 111.918 55.2031 111.918 55.9091C111.918 56.6349 112.026 57.2448 112.241 57.7386C112.46 58.2325 112.765 58.6054 113.156 58.8572C113.547 59.1091 113.999 59.2351 114.513 59.2351C114.801 59.2351 115.068 59.197 115.313 59.1207C115.562 59.0445 115.782 58.9335 115.975 58.7876C116.167 58.6385 116.326 58.4579 116.452 58.2457C116.581 58.0336 116.671 57.7917 116.72 57.5199L118.898 57.5298C118.842 57.9972 118.701 58.4479 118.475 58.8821C118.253 59.313 117.953 59.6991 117.575 60.0405C117.201 60.3786 116.753 60.647 116.233 60.8459C115.716 61.0414 115.131 61.1392 114.478 61.1392C113.57 61.1392 112.758 60.9337 112.042 60.5227C111.329 60.1117 110.766 59.5168 110.352 58.7379C109.941 57.959 109.735 57.0161 109.735 55.9091C109.735 54.7988 109.944 53.8542 110.362 53.0753C110.779 52.2964 111.346 51.7031 112.062 51.2955C112.778 50.8845 113.583 50.679 114.478 50.679C115.068 50.679 115.615 50.7618 116.119 50.9276C116.626 51.0933 117.075 51.3352 117.466 51.6534C117.857 51.9683 118.175 52.3544 118.421 52.8118C118.669 53.2692 118.828 53.7929 118.898 54.3828ZM120.054 52.593V50.8182H128.416V52.593H125.299V61H123.171V52.593H120.054ZM131.946 50.8182V61H129.793V50.8182H131.946ZM133.717 61V50.8182H140.458V52.593H135.87V55.0192H140.011V56.794H135.87V61H133.717ZM144.059 50.8182V61H141.906V50.8182H144.059ZM145.83 61V50.8182H152.691V52.593H147.983V55.0192H152.338V56.794H147.983V59.2251H152.711V61H145.83ZM158.012 61H154.403V50.8182H158.042C159.066 50.8182 159.948 51.022 160.687 51.4297C161.426 51.834 161.994 52.4157 162.392 53.1747C162.793 53.9337 162.993 54.8419 162.993 55.8991C162.993 56.9598 162.793 57.8712 162.392 58.6335C161.994 59.3958 161.422 59.9808 160.677 60.3885C159.934 60.7962 159.046 61 158.012 61ZM156.555 59.1555H157.922C158.559 59.1555 159.094 59.0429 159.528 58.8175C159.966 58.5888 160.294 58.2358 160.513 57.7585C160.735 57.2779 160.846 56.6581 160.846 55.8991C160.846 55.1468 160.735 54.532 160.513 54.0547C160.294 53.5774 159.967 53.2261 159.533 53.0007C159.099 52.7753 158.564 52.6626 157.927 52.6626H156.555V59.1555Z" fill="white"/>
</g>
<g clip-path="url(#clip0_2775_29246)">
<path fill-rule="evenodd" clip-rule="evenodd" d="M101.856 36.388C101.752 36.658 101.599 36.9027 101.407 37.1078L99.3634 39.3227C99.1705 39.5383 98.9386 39.7086 98.6823 39.8228C98.3078 40.0015 97.8912 40.0493 97.4905 39.9597C97.0897 39.8701 96.7247 39.6474 96.446 39.3227L95.2253 38.0287C95.2253 36.3933 95.2253 35.1178 95.2253 34.8321C95.2253 34.5674 95.2253 34.3875 95.2253 34.3028C95.2296 34.2467 95.2378 34.191 95.2497 34.1361L95.2692 34.0699C95.3389 33.779 95.4329 33.4956 95.55 33.2232C95.7617 32.7689 96.0126 32.3374 96.2995 31.9345C97.6447 29.963 98.3014 27.7005 98.1305 25.5201C97.5959 18.3806 89.405 15.1761 84.5221 20.2912C82.569 22.3287 81.5705 25.3719 82.3005 28.2589C82.8815 30.5637 84.1315 31.6989 85.1911 33.5778C85.3505 33.8601 85.4838 34.1588 85.589 34.4695V34.4907C85.6128 34.5628 85.63 34.6372 85.6403 34.713C85.6647 34.8717 85.6818 35.0543 85.6965 35.274V35.356C85.7135 35.6206 85.7282 36.7876 85.7428 38.2906C85.5402 38.2007 85.3376 38.1028 85.1276 38.0022C84.9176 37.9016 84.6393 37.7588 84.4245 37.6291C84.3537 37.592 84.2829 37.5418 84.2096 37.5021L83.0695 38.7617L83.0426 38.7908C82.8491 38.9895 82.623 39.1474 82.3761 39.2565C82.1308 39.3623 81.8687 39.4153 81.6047 39.4126C81.3398 39.4151 81.077 39.3621 80.8307 39.2565C80.584 39.1494 80.358 38.9932 80.1642 38.7961C80.1642 38.7961 80.1447 38.7961 80.1447 38.7723L78.1061 36.5362C77.9072 36.3321 77.749 36.0858 77.6415 35.8127C77.534 35.5396 77.4794 35.2454 77.4811 34.9485C77.4805 34.6481 77.537 34.3509 77.6471 34.0752C77.7525 33.8065 77.9088 33.5649 78.1061 33.3661L79.4245 31.9636C79.1101 31.2888 78.8646 30.579 78.6921 29.8466H77.0636C76.7918 29.846 76.5225 29.7894 76.2702 29.6799C76.023 29.5679 75.8002 29.4011 75.6159 29.1903C75.4216 28.9811 75.2651 28.7343 75.1545 28.4626C75.0548 28.1961 75.0026 27.9114 75.0007 27.6238V24.4484C74.9936 24.1525 75.0438 23.8584 75.1481 23.5849C75.2524 23.3115 75.4084 23.0647 75.6061 22.8606C75.7963 22.6573 76.0221 22.4971 76.2702 22.3896C76.5224 22.2796 76.7918 22.223 77.0636 22.2229H78.9069C79.1779 21.4687 79.4416 20.8733 79.7736 20.1536L78.6115 18.9151C78.4216 18.6993 78.273 18.4448 78.1745 18.1663C77.9823 17.6273 77.9823 17.0301 78.1745 16.4912C78.2704 16.2246 78.4111 15.9797 78.5895 15.7688C79.2804 15.0199 79.9787 14.279 80.6745 13.5328C80.8665 13.3222 81.0956 13.1557 81.3483 13.0432C81.5996 12.9255 81.8705 12.8651 82.1442 12.8659C82.4172 12.8649 82.6873 12.9253 82.9377 13.0432C83.1822 13.1624 83.4028 13.3323 83.5871 13.5434L84.8932 14.9591C85.5159 14.6188 86.1708 14.3526 86.8464 14.1652V12.4002C86.8469 12.1055 86.8991 11.8137 87.0002 11.5402C87.1022 11.2646 87.256 11.015 87.4518 10.8072C88.4699 9.7487 92.9377 9.48408 93.7091 11.5402C93.8087 11.8141 93.86 12.1058 93.8605 12.4002V14.4087C94.5563 14.7024 95.1081 14.9882 95.7721 15.3481L96.9147 14.1096C97.1056 13.8998 97.3308 13.7303 97.5788 13.6095C97.8294 13.4926 98.0994 13.4323 98.3722 13.4323C98.6451 13.4323 98.9151 13.4926 99.1657 13.6095C99.4177 13.7239 99.6447 13.8942 99.8322 14.1096L101.876 16.3245C102.075 16.5331 102.234 16.7822 102.344 17.0575C102.452 17.3292 102.508 17.6218 102.508 17.9175C102.508 18.2133 102.452 18.5059 102.344 18.7775C102.235 19.0432 102.079 19.2825 101.883 19.4814L100.577 20.9236C100.821 21.5561 101.197 22.3526 101.309 23.0273H102.933C103.205 23.0279 103.474 23.0845 103.726 23.1941C103.974 23.3054 104.197 23.4722 104.381 23.6836L104.403 23.7048C104.586 23.9122 104.735 24.1532 104.842 24.4166C104.942 24.6822 104.994 24.966 104.996 25.2528V28.4282C104.995 28.7228 104.943 29.0146 104.842 29.2883C104.735 29.5604 104.583 29.8089 104.393 30.0213C104.202 30.2297 103.976 30.3952 103.726 30.5082C103.474 30.6182 103.205 30.6748 102.933 30.6749H101.08C100.806 31.4343 100.548 32.0218 100.213 32.7442L101.368 33.972C101.561 34.18 101.718 34.4249 101.829 34.6945C101.937 34.9661 101.993 35.2587 101.993 35.5545C101.993 35.8502 101.937 36.1428 101.829 36.4145L101.863 36.388H101.856ZM85.7575 28.8755C85.0519 27.6688 84.6442 26.2795 85.3058 24.3981C85.8258 22.9136 87.0148 21.6963 88.5407 21.0162C86.07 26.9358 93.1672 29.0527 93.3796 22.043C95.755 24.1811 95.7355 27.3354 93.9924 29.881C93.172 31.0877 92.9499 31.7651 92.7717 32.4558C92.6754 32.8608 92.6343 33.2789 92.6496 33.6968C92.6496 34.0964 92.6496 36.343 92.6716 38.0737H88.2502C88.2282 36.4859 88.2062 34.369 88.1842 34.0197C88.1776 33.5445 88.1001 33.0735 87.9548 32.6251C87.7546 32.0535 87.5129 31.5296 86.7951 30.4526C86.4679 29.9604 86.0627 29.3941 85.7575 28.8649V28.8755Z" fill="black"/>
</g>
</g>
<defs>
<filter id="filter0_d_2775_29246" x="0" y="0" width="180" height="82" filterUnits="userSpaceOnUse" color-interpolation-filters="sRGB">
<feFlood flood-opacity="0" result="BackgroundImageFix"/>
<feColorMatrix in="SourceAlpha" type="matrix" values="0 0 0 0 0 0 0 0 0 0 0 0 0 0 0 0 0 0 127 0" result="hardAlpha"/>
<feOffset dy="4"/>
<feGaussianBlur stdDeviation="2"/>
<feComposite in2="hardAlpha" operator="out"/>
<feColorMatrix type="matrix" values="0 0 0 0 0 0 0 0 0 0 0 0 0 0 0 0 0 0 0.25 0"/>
<feBlend mode="normal" in2="BackgroundImageFix" result="effect1_dropShadow_2775_29246"/>
<feBlend mode="normal" in="SourceGraphic" in2="effect1_dropShadow_2775_29246" result="shape"/>
</filter>
<filter id="filter1_d_2775_29246" x="8.88672" y="50.6792" width="158.105" height="18.46" filterUnits="userSpaceOnUse" color-interpolation-filters="sRGB">
<feFlood flood-opacity="0" result="BackgroundImageFix"/>
<feColorMatrix in="SourceAlpha" type="matrix" values="0 0 0 0 0 0 0 0 0 0 0 0 0 0 0 0 0 0 127 0" result="hardAlpha"/>
<feOffset dy="4"/>
<feGaussianBlur stdDeviation="2"/>
<feComposite in2="hardAlpha" operator="out"/>
<feColorMatrix type="matrix" values="0 0 0 0 0 0 0 0 0 0 0 0 0 0 0 0 0 0 0.25 0"/>
<feBlend mode="normal" in2="BackgroundImageFix" result="effect1_dropShadow_2775_29246"/>
<feBlend mode="normal" in="SourceGraphic" in2="effect1_dropShadow_2775_29246" result="shape"/>
</filter>
<clipPath id="clip0_2775_29246">
<rect width="30" height="30" fill="white" transform="translate(75 10)"/>
</clipPath>
</defs>
</svg>
