<svg width="172" height="82" viewBox="0 0 172 82" fill="none" xmlns="http://www.w3.org/2000/svg">
<g filter="url(#filter0_d_2775_29240)">
<rect x="4" width="164" height="74" rx="12" fill="#2E7D32"/>
<g filter="url(#filter1_d_2775_29240)">
<path d="M50.8849 61V50.8182H54.902C55.6709 50.8182 56.3272 50.9557 56.8707 51.2308C57.4176 51.5026 57.8336 51.8887 58.1186 52.3892C58.407 52.8864 58.5511 53.4714 58.5511 54.1442C58.5511 54.8203 58.4053 55.402 58.1136 55.8892C57.822 56.3731 57.3994 56.7443 56.8459 57.0028C56.2957 57.2614 55.6295 57.3906 54.8473 57.3906H52.1577V55.6605H54.4993C54.9103 55.6605 55.2517 55.6042 55.5234 55.4915C55.7952 55.3788 55.9974 55.2098 56.13 54.9844C56.2659 54.759 56.3338 54.4789 56.3338 54.1442C56.3338 53.8061 56.2659 53.5211 56.13 53.2891C55.9974 53.0571 55.7936 52.8814 55.5185 52.7621C55.2467 52.6394 54.9036 52.5781 54.4893 52.5781H53.0376V61H50.8849ZM56.3835 56.3665L58.9141 61H56.5376L54.0618 56.3665H56.3835ZM60.0724 61V50.8182H66.9332V52.593H62.2251V55.0192H66.5803V56.794H62.2251V59.2251H66.9531V61H60.0724ZM77.6284 54.3828H75.4508C75.411 54.1011 75.3298 53.8509 75.2072 53.6321C75.0846 53.41 74.9271 53.2211 74.7349 53.0653C74.5427 52.9096 74.3206 52.7902 74.0687 52.7074C73.8201 52.6245 73.55 52.5831 73.2583 52.5831C72.7314 52.5831 72.2723 52.714 71.8812 52.9759C71.4901 53.2344 71.1868 53.6122 70.9714 54.1094C70.756 54.6032 70.6483 55.2031 70.6483 55.9091C70.6483 56.6349 70.756 57.2448 70.9714 57.7386C71.1902 58.2325 71.4951 58.6054 71.8862 58.8572C72.2773 59.1091 72.7297 59.2351 73.2434 59.2351C73.5318 59.2351 73.7986 59.197 74.0439 59.1207C74.2924 59.0445 74.5128 58.9335 74.7051 58.7876C74.8973 58.6385 75.0564 58.4579 75.1824 58.2457C75.3116 58.0336 75.4011 57.7917 75.4508 57.5199L77.6284 57.5298C77.572 57.9972 77.4312 58.4479 77.2058 58.8821C76.9837 59.313 76.6838 59.6991 76.3059 60.0405C75.9314 60.3786 75.484 60.647 74.9636 60.8459C74.4466 61.0414 73.8616 61.1392 73.2086 61.1392C72.3005 61.1392 71.4885 60.9337 70.7725 60.5227C70.06 60.1117 69.4965 59.5168 69.0822 58.7379C68.6712 57.959 68.4657 57.0161 68.4657 55.9091C68.4657 54.7988 68.6745 53.8542 69.0922 53.0753C69.5098 52.2964 70.0765 51.7031 70.7924 51.2955C71.5083 50.8845 72.3137 50.679 73.2086 50.679C73.7986 50.679 74.3455 50.7618 74.8493 50.9276C75.3564 51.0933 75.8055 51.3352 76.1966 51.6534C76.5877 51.9683 76.9058 52.3544 77.1511 52.8118C77.3997 53.2692 77.5588 53.7929 77.6284 54.3828ZM78.7843 52.593V50.8182H87.1465V52.593H84.0293V61H81.9015V52.593H78.7843ZM90.6763 50.8182V61H88.5236V50.8182H90.6763ZM92.4474 61V50.8182H99.1889V52.593H94.6001V55.0192H98.7415V56.794H94.6001V61H92.4474ZM102.79 50.8182V61H100.637V50.8182H102.79ZM104.561 61V50.8182H111.422V52.593H106.713V55.0192H111.069V56.794H106.713V59.2251H111.441V61H104.561ZM116.742 61H113.133V50.8182H116.772C117.796 50.8182 118.678 51.022 119.417 51.4297C120.156 51.834 120.725 52.4157 121.122 53.1747C121.523 53.9337 121.724 54.8419 121.724 55.8991C121.724 56.9598 121.523 57.8712 121.122 58.6335C120.725 59.3958 120.153 59.9808 119.407 60.3885C118.665 60.7962 117.776 61 116.742 61ZM115.286 59.1555H116.653C117.289 59.1555 117.825 59.0429 118.259 58.8175C118.696 58.5888 119.024 58.2358 119.243 57.7585C119.465 57.2779 119.576 56.6581 119.576 55.8991C119.576 55.1468 119.465 54.532 119.243 54.0547C119.024 53.5774 118.698 53.2261 118.264 53.0007C117.829 52.7753 117.294 52.6626 116.658 52.6626H115.286V59.1555Z" fill="white"/>
</g>
<g clip-path="url(#clip0_2775_29240)">
<path fill-rule="evenodd" clip-rule="evenodd" d="M88.7435 13.6094C89.6572 13.8836 90.5301 14.2791 91.3389 14.7852L92.7357 13.3815C93.0602 13.0587 93.4993 12.8775 93.957 12.8775C94.4148 12.8775 94.8539 13.0587 95.1784 13.3815L96.6094 14.8193C96.9322 15.1438 97.1134 15.583 97.1134 16.0407C97.1134 16.4984 96.9322 16.9375 96.6094 17.262L95.1055 18.766C95.539 19.551 95.8713 20.3879 96.0944 21.2565H98.2637C98.4915 21.2559 98.7172 21.3003 98.9278 21.387C99.1384 21.4738 99.3299 21.6013 99.4912 21.7621C99.6525 21.923 99.7804 22.1141 99.8677 22.3245C99.9551 22.5349 100 22.7605 100 22.9883V25.0163C99.9988 25.474 99.8164 25.9126 99.4928 26.2363C99.1691 26.5599 98.7305 26.7423 98.2728 26.7435H96.083C95.855 27.6028 95.5205 28.4303 95.0872 29.2067L96.6094 30.7357C96.9322 31.0602 97.1134 31.4993 97.1134 31.957C97.1134 32.4148 96.9322 32.8539 96.6094 33.1784L95.1807 34.6094C94.8558 34.9323 94.4163 35.1136 93.9582 35.1136C93.5001 35.1136 93.0606 34.9323 92.7357 34.6094L91.291 33.1624C90.4942 33.6514 89.637 34.0344 88.7412 34.3018V36.2591C88.74 36.7168 88.5576 37.1555 88.234 37.4791C87.9103 37.8028 87.4717 37.9851 87.014 37.9863H84.9883C84.5306 37.9851 84.0919 37.8028 83.7683 37.4791C83.4446 37.1555 83.2623 36.7168 83.2611 36.2591V34.4909C82.2778 34.2685 81.3306 33.9096 80.4469 33.4245L79.262 34.6094C78.937 34.9311 78.4981 35.1116 78.0407 35.1116C77.5833 35.1116 77.1444 34.9311 76.8193 34.6094L75.3815 33.1715C75.0592 32.8468 74.8784 32.4077 74.8784 31.9502C74.8784 31.4926 75.0592 31.0536 75.3815 30.7288L76.457 29.6533C75.8937 28.7511 75.4668 27.7705 75.1901 26.7435H73.7272C73.2695 26.7423 72.8309 26.5599 72.5072 26.2363C72.1836 25.9126 72.0012 25.474 72 25.0163V22.9883C72 22.5298 72.1818 22.09 72.5056 21.7653C72.8294 21.4407 73.2687 21.2577 73.7272 21.2565H75.1742C75.4431 20.2165 75.8663 19.2226 76.4297 18.3079L75.3815 17.262C75.0598 16.937 74.8793 16.4981 74.8793 16.0407C74.8793 15.5833 75.0598 15.1444 75.3815 14.8193L76.8193 13.3815C77.1438 13.0587 77.583 12.8775 78.0407 12.8775C78.4984 12.8775 78.9375 13.0587 79.262 13.3815L80.4014 14.5208C81.2948 14.0173 82.2565 13.6458 83.2565 13.418V11.7272C83.2577 11.2687 83.4407 10.8294 83.7653 10.5056C84.09 10.1818 84.5298 10 84.9883 10H87.0163C87.474 10.0012 87.9126 10.1836 88.2363 10.5072C88.5599 10.8309 88.7423 11.2695 88.7435 11.7272V13.6094ZM85.64 18.3581C86.7487 18.3581 87.8326 18.6869 88.7544 19.3029C89.6763 19.919 90.3948 20.7945 90.819 21.8189C91.2432 22.8433 91.354 23.9705 91.1376 25.058C90.9211 26.1454 90.387 27.1442 89.6028 27.928C88.8187 28.7119 87.8197 29.2455 86.7322 29.4616C85.6446 29.6776 84.5175 29.5663 83.4933 29.1417C82.469 28.7171 81.5938 27.9982 80.9781 27.0761C80.3624 26.154 80.0341 25.07 80.0345 23.9613C80.0345 23.2252 80.1795 22.4964 80.4612 21.8165C80.743 21.1365 81.1559 20.5187 81.6764 19.9984C82.197 19.4781 82.815 19.0654 83.495 18.7839C84.1751 18.5025 84.904 18.3578 85.64 18.3581Z" fill="black"/>
</g>
</g>
<defs>
<filter id="filter0_d_2775_29240" x="0" y="0" width="172" height="82" filterUnits="userSpaceOnUse" color-interpolation-filters="sRGB">
<feFlood flood-opacity="0" result="BackgroundImageFix"/>
<feColorMatrix in="SourceAlpha" type="matrix" values="0 0 0 0 0 0 0 0 0 0 0 0 0 0 0 0 0 0 127 0" result="hardAlpha"/>
<feOffset dy="4"/>
<feGaussianBlur stdDeviation="2"/>
<feComposite in2="hardAlpha" operator="out"/>
<feColorMatrix type="matrix" values="0 0 0 0 0 0 0 0 0 0 0 0 0 0 0 0 0 0 0.25 0"/>
<feBlend mode="normal" in2="BackgroundImageFix" result="effect1_dropShadow_2775_29240"/>
<feBlend mode="normal" in="SourceGraphic" in2="effect1_dropShadow_2775_29240" result="shape"/>
</filter>
<filter id="filter1_d_2775_29240" x="46.8867" y="50.6792" width="78.8359" height="18.46" filterUnits="userSpaceOnUse" color-interpolation-filters="sRGB">
<feFlood flood-opacity="0" result="BackgroundImageFix"/>
<feColorMatrix in="SourceAlpha" type="matrix" values="0 0 0 0 0 0 0 0 0 0 0 0 0 0 0 0 0 0 127 0" result="hardAlpha"/>
<feOffset dy="4"/>
<feGaussianBlur stdDeviation="2"/>
<feComposite in2="hardAlpha" operator="out"/>
<feColorMatrix type="matrix" values="0 0 0 0 0 0 0 0 0 0 0 0 0 0 0 0 0 0 0.25 0"/>
<feBlend mode="normal" in2="BackgroundImageFix" result="effect1_dropShadow_2775_29240"/>
<feBlend mode="normal" in="SourceGraphic" in2="effect1_dropShadow_2775_29240" result="shape"/>
</filter>
<clipPath id="clip0_2775_29240">
<rect width="28" height="28" fill="white" transform="translate(72 10)"/>
</clipPath>
</defs>
</svg>
