<svg width="351" height="210" viewBox="0 0 351 210" fill="none" xmlns="http://www.w3.org/2000/svg">
<path d="M288.683 24.0483C248.351 -7.01439 192.24 -8.28363 151.305 21.9818C129.665 37.9813 112.889 62.459 115.941 99.729C117.02 112.912 120.022 123.727 124.403 132.58C142.145 168.471 215.016 167.089 219.063 167.083C221.685 167.081 224.307 167.139 226.929 167.259C236.113 167.68 245.249 168.834 254.248 170.71C267.08 173.383 283.415 174.725 298.011 169.664C300.49 168.808 302.9 167.761 305.218 166.533C313.238 162.274 322.217 158.204 327.466 148.102C331.411 140.521 334.285 131.015 335.668 119.174C340.702 76.0537 315.548 44.7393 288.683 24.0483Z" fill="#F2F2F2"/>
<path d="M227.105 178.592C290.8 178.592 342.435 173.749 342.435 167.775C342.435 161.801 290.8 156.958 227.105 156.958C163.411 156.958 111.776 161.801 111.776 167.775C111.776 173.749 163.411 178.592 227.105 178.592Z" fill="#3F3D56"/>
<path opacity="0.1" d="M221.472 172.852C280.713 172.852 328.737 170.579 328.737 167.775C328.737 164.97 280.713 162.697 221.472 162.697C162.231 162.697 114.207 164.97 114.207 167.775C114.207 170.579 162.231 172.852 221.472 172.852Z" fill="black"/>
<path d="M280.812 22.9045V35.0402H265V167.389H298V40.0779V35.0402V22.9045H280.812Z" fill="#575A89"/>
<path d="M193.73 104.421V83.584H173.563V104.421H166.001V167.618H201.063V104.421H193.73Z" fill="#575A89"/>
<path d="M197.167 138.309H169.897V167.847H197.167V138.309Z" fill="#3F3D56"/>
<path opacity="0.1" d="M174.251 138.309H169.897V167.847H174.251V138.309Z" fill="black"/>
<path d="M253.313 16.2637V23.3619H212.979V16.2637H201.063V167.846H265V16.2637H253.313Z" fill="#3F3D56"/>
<path opacity="0.1" d="M262.25 16.2646H253.312V23.3629H262.25V16.2646Z" fill="black"/>
<path opacity="0.1" d="M210 16.2646H201.063V167.847H210V16.2646Z" fill="black"/>
<path d="M155.459 59.5409V53.8164H149.501V59.5409H138.73V167.847H166.001V59.5409H155.459Z" fill="#3F3D56"/>
<path opacity="0.1" d="M152.709 53.8164H149.501V59.5408H152.709V53.8164Z" fill="black"/>
<path opacity="0.1" d="M141.939 59.5413H138.73V167.847H141.939V59.5413Z" fill="black"/>
<path opacity="0.1" d="M262.25 74.6536H253.312V167.847H262.25V74.6536Z" fill="black"/>
<path opacity="0.1" d="M166.001 59.5413H157.751V79.4622H166.001V59.5413Z" fill="black"/>
<path d="M223.75 35.499H210.917V40.9945H223.75V35.499Z" fill="#FF6584"/>
<path d="M251.021 92.0554H238.188V97.5509H251.021V92.0554Z" fill="#FF6584"/>
<path d="M223.75 131.669H210.917V137.164H223.75V131.669Z" fill="#FF6584"/>
<path d="M158.897 84.2705H146.063V89.7659H158.897V84.2705Z" fill="#FF6584"/>
<path d="M190.063 141.515H177.23V147.01H190.063V141.515Z" fill="#FF6584"/>
<path opacity="0.1" d="M194.646 109.229H172.646V118.388H194.646V109.229Z" fill="black"/>
<path opacity="0.1" d="M290.895 45.5732H268.896V54.7323H290.895V45.5732Z" fill="black"/>
<path opacity="0.1" d="M290.895 65.0361H268.896V74.1952H290.895V65.0361Z" fill="black"/>
<path opacity="0.1" d="M290.895 84.499H268.896V93.6581H290.895V84.499Z" fill="black"/>
<path opacity="0.1" d="M290.895 103.962H268.896V113.121H290.895V103.962Z" fill="black"/>
<path opacity="0.1" d="M290.895 123.425H268.896V132.584H290.895V123.425Z" fill="black"/>
<path opacity="0.1" d="M290.895 142.888H268.896V152.047H290.895V142.888Z" fill="black"/>
<path d="M305.562 87.0179V62.0596H289.52V87.0179H283.791V167.847H311.062V87.0179H305.562Z" fill="#3F3D56"/>
<path opacity="0.1" d="M294.562 62.0596H289.521V87.018H294.562V62.0596Z" fill="black"/>
<path opacity="0.1" d="M288.833 87.0186H283.791V167.847H288.833V87.0186Z" fill="black"/>
<path opacity="0.1" d="M311.062 127.547H297.541V135.561H311.062V127.547Z" fill="black"/>
<path d="M310.833 115.641H298V121.136H310.833V115.641Z" fill="#FF6584"/>
<path d="M351 121.188C351 141.587 338.863 148.71 323.891 148.71C308.919 148.71 296.781 141.587 296.781 121.188C296.781 100.788 323.891 74.8362 323.891 74.8362C323.891 74.8362 351 100.788 351 121.188Z" fill="#1976D2"/>
<path d="M322.903 145.59L323.181 128.517L334.736 107.396L323.225 125.839L323.35 118.162L331.313 102.881L323.382 116.131L323.607 102.324L332.134 90.1582L323.642 100.153L323.782 74.8362L322.901 108.351L322.974 106.968L314.304 93.7085L322.834 109.623L322.026 125.042L322.002 124.633L312.008 110.679L321.972 126.079L321.871 128.007L321.853 128.036L321.861 128.194L319.812 167.316H322.55L322.879 147.109L332.819 131.747L322.903 145.59Z" fill="#3F3D56"/>
<path d="M152.317 121.408C152.317 141.808 140.18 148.931 125.208 148.931C110.235 148.931 98.0981 141.808 98.0981 121.408C98.0981 101.008 125.208 75.0566 125.208 75.0566C125.208 75.0566 152.317 101.008 152.317 121.408Z" fill="#1976D2"/>
<path d="M124.22 145.81L124.497 128.738L136.052 107.616L124.541 126.059L124.666 118.383L132.629 103.101L124.699 116.351V116.351L124.923 102.545L133.451 90.3787L124.959 100.374L125.099 75.0566L124.217 108.571L124.29 107.189L115.62 93.9289L124.151 109.843L123.343 125.263L123.319 124.853L113.324 110.899L123.289 126.299L123.188 128.228L123.17 128.257L123.178 128.415L121.128 167.536H123.867L124.195 147.329L134.135 131.967L124.22 145.81Z" fill="#3F3D56"/>
<path d="M64.699 210C100.431 210 129.398 206.086 129.398 201.256C129.398 196.427 100.431 192.512 64.699 192.512C28.9667 192.512 0 196.427 0 201.256C0 206.086 28.9667 210 64.699 210Z" fill="#3F3D56"/>
<path opacity="0.1" d="M64.699 208.099C92.6634 208.099 115.333 205.035 115.333 201.256C115.333 197.476 92.6634 194.412 64.699 194.412C36.7346 194.412 14.0649 197.476 14.0649 201.256C14.0649 205.035 36.7346 208.099 64.699 208.099Z" fill="black"/>
<path d="M55.5503 76.7561C63.141 76.7561 69.2944 70.6076 69.2944 63.0232C69.2944 55.4387 63.141 49.2903 55.5503 49.2903C47.9596 49.2903 41.8062 55.4387 41.8062 63.0232C41.8062 70.6076 47.9596 76.7561 55.5503 76.7561Z" fill="#2F2E41"/>
<path d="M59.3042 75.3155C63.5526 75.3155 66.9965 71.8743 66.9965 67.6294C66.9965 63.3845 63.5526 59.9434 59.3042 59.9434C55.0558 59.9434 51.6118 63.3845 51.6118 67.6294C51.6118 71.8743 55.0558 75.3155 59.3042 75.3155Z" fill="#FFB9B9"/>
<path d="M55.0017 71.668C55.0017 71.668 56.9574 76.3578 53.9587 77.6605C50.96 78.9632 52.1334 86.6493 52.1334 86.6493L63.8675 84.1741C63.8675 84.1741 63.8675 80.9173 61.5207 79.4843C59.1739 78.0513 64.6498 71.668 64.6498 71.668H55.0017Z" fill="#FFB9B9"/>
<path d="M51.2207 106.32L51.6117 110.619L69.213 113.615L67.518 105.669L51.2207 106.32Z" fill="#FFB9B9"/>
<path d="M50.9595 140.843L51.6114 159.081C51.6114 159.081 48.4823 166.507 50.9595 180.186C53.4367 193.864 51.6114 197.642 51.6114 197.642L60.4772 198.814L59.9557 193.734L57.8696 189.305L58.7823 164.032C58.7823 164.032 62.824 154.652 62.9544 152.828C63.0848 151.005 62.6936 137.717 62.6936 137.717L50.9595 140.843Z" fill="#FFB9B9"/>
<path opacity="0.1" d="M50.9595 140.843L51.6114 159.081C51.6114 159.081 48.4823 166.507 50.9595 180.186C53.4367 193.864 51.6114 197.642 51.6114 197.642L60.4772 198.814L59.9557 193.734L57.8696 189.305L58.7823 164.032C58.7823 164.032 62.824 154.652 62.9544 152.828C63.0848 151.005 62.6936 137.717 62.6936 137.717L50.9595 140.843Z" fill="black"/>
<path d="M53.6979 191.389C53.6979 191.389 53.6979 189.695 52.9156 189.565C52.1333 189.435 51.0903 189.044 51.0903 189.565C51.0903 190.086 50.9599 193.734 50.6991 194.255C50.4384 194.776 49.9169 196.73 50.308 197.511C50.308 197.511 49.1346 200.508 50.0472 200.768C50.9599 201.029 56.1751 201.029 56.1751 201.029L56.4358 199.596C56.4358 199.596 68.0396 203.243 70.5168 199.987C70.5168 199.987 71.6902 197.642 69.6041 197.121C69.6041 197.121 64.9105 197.251 63.2155 195.297C61.5206 193.343 58.2611 188.783 58.2611 188.783C58.2611 188.783 55.6535 189.174 55.9143 190.868V191.389H53.6979Z" fill="#2F2E41"/>
<path d="M58.1309 141.233C58.1309 141.233 59.4347 150.352 63.9979 156.996C63.9979 156.996 66.3447 162.468 65.9536 164.161C65.5625 165.855 65.5625 175.104 69.4738 183.311L73.1245 195.296L74.9498 199.595L78.0789 200.898L83.1636 201.289L80.2953 195.296L78.8611 192.17C78.8611 192.17 76.2536 186.829 76.2536 182.139C76.2536 177.449 74.5586 166.376 74.5586 166.376C74.5586 166.376 74.5586 141.364 71.8207 139.8C69.0827 138.237 58.1309 141.233 58.1309 141.233Z" fill="#FFB9B9"/>
<path d="M52.2635 109.316L50.9597 109.056V114.918C50.9597 114.918 50.4382 119.477 49.2648 120.389C48.0914 121.301 43.5281 139.279 45.0926 140.321C46.6572 141.363 67.6482 146.835 72.733 141.233L69.2128 124.167C69.2128 124.167 69.4735 112.443 69.2128 112.443C68.952 112.443 52.2635 109.316 52.2635 109.316Z" fill="#2F2E41"/>
<path d="M64.6495 83.0019C64.6495 83.0019 58.1305 78.5726 51.6116 84.3046C51.6116 84.3046 49.2648 93.9447 48.8736 96.2896C48.4825 98.6345 46.0053 108.275 47.8306 109.187C49.6559 110.099 49.6559 106.972 54.3495 107.623C59.0432 108.275 69.0824 108.014 69.0824 107.233C69.0824 106.451 66.7355 100.198 67.6482 99.1556C68.5609 98.1134 70.1254 93.1631 68.5609 90.6879C66.9963 88.2128 64.6495 83.0019 64.6495 83.0019Z" fill="#1976D2"/>
<path d="M56.1748 109.317L69.2127 115.44C69.2127 115.44 74.4279 122.084 75.6013 118.306C76.7747 114.528 71.6899 111.792 71.6899 111.792L62.9545 106.842L56.1748 109.056L56.1748 109.317Z" fill="#FFB9B9"/>
<path opacity="0.1" d="M57.0874 84.3047C57.0874 84.3047 49.6558 107.233 56.4355 110.88C63.2152 114.528 64.2583 107.623 64.2583 107.623C64.2583 107.623 59.695 104.757 61.1292 101.24C62.5633 97.7227 63.8671 84.3047 63.8671 84.3047L57.0874 84.3047Z" fill="black"/>
<path d="M56.6963 83.5234C56.6963 83.5234 49.2647 106.451 56.0444 110.099C62.8241 113.747 63.8672 106.842 63.8672 106.842C63.8672 106.842 59.3039 103.976 60.7381 100.459C62.1722 96.9415 63.476 83.5234 63.476 83.5234L56.6963 83.5234Z" fill="#1976D2"/>
<path d="M74.615 194.066C74.615 194.066 74.4842 192.292 73.6548 192.216C72.8254 192.14 71.7027 191.811 71.743 192.357C71.7832 192.903 71.9285 196.733 71.6957 197.299C71.4628 197.865 71.0676 199.952 71.5377 200.741C71.5377 200.741 70.5402 203.969 71.5162 204.172C72.4922 204.374 77.9545 203.972 77.9545 203.972L78.1169 202.451C78.1169 202.451 90.5522 205.376 92.8951 201.774C92.8951 201.774 93.943 199.228 91.7178 198.843C91.7178 198.843 86.8118 199.341 84.8856 197.425C82.9594 195.509 79.1932 190.985 79.1932 190.985C79.1932 190.985 76.4923 191.596 76.8962 193.35L76.9365 193.895L74.615 194.066Z" fill="#2F2E41"/>
<path d="M59.2877 67.6007C64.4148 67.6007 68.5711 65.3894 68.5711 62.6617C68.5711 59.9339 64.4148 57.7227 59.2877 57.7227C54.1607 57.7227 50.0044 59.9339 50.0044 62.6617C50.0044 65.3894 54.1607 67.6007 59.2877 67.6007Z" fill="#2F2E41"/>
<path d="M51.5718 70.9737C52.3042 70.9737 52.898 70.0568 52.898 68.9258C52.898 67.7948 52.3042 66.8779 51.5718 66.8779C50.8394 66.8779 50.2456 67.7948 50.2456 68.9258C50.2456 70.0568 50.8394 70.9737 51.5718 70.9737Z" fill="#FFB9B9"/>
<path d="M47.111 55.7953C50.7066 55.7953 53.6214 52.8829 53.6214 49.2902C53.6214 45.6976 50.7066 42.7852 47.111 42.7852C43.5154 42.7852 40.6006 45.6976 40.6006 49.2902C40.6006 52.8829 43.5154 55.7953 47.111 55.7953Z" fill="#2F2E41"/>
</svg>
